STARTFONT 2.3
FONT -FontForge-Butcherman-Book-R-Normal--18-180-72-72-P-97-ISO10646-1
SIZE 18 72 72  4
FONTBOUNDINGBOX 28 35 -2 -12
COMMENT "Generated by fontforge, http://fontforge.sourceforge.net"
COMMENT "Copyright (c) 2011, Typomondo, with Reserved Font Name  "Butcherman"."
STARTPROPERTIES 41
FOUNDRY "FontForge"
FAMILY_NAME "Butcherman"
WEIGHT_NAME "Book"
SLANT "R"
SETWIDTH_NAME "Normal"
ADD_STYLE_NAME ""
PIXEL_SIZE 18
POINT_SIZE 180
RESOLUTION_X 72
RESOLUTION_Y 72
SPACING "P"
AVERAGE_WIDTH 97
CHARSET_REGISTRY "ISO10646"
CHARSET_ENCODING "1"
FONTNAME_REGISTRY ""
CHARSET_COLLECTIONS "ISO8859-2 ISO8859-9 ISO8859-4 ISO10646-1"
BITS_PER_PIXEL 4
FONT_NAME "Butcherman-Regular"
FACE_NAME "Butcherman Regular"
COPYRIGHT "Copyright (c) 2011, Typomondo, with Reserved Font Name  "Butcherman"."
FONT_VERSION "001.004"
FONT_ASCENT 14
FONT_DESCENT 4
UNDERLINE_POSITION -2
UNDERLINE_THICKNESS 1
X_HEIGHT 13
CAP_HEIGHT 13
DEFAULT_CHAR 3
RAW_ASCENT 799
RAW_DESCENT 200
NORM_SPACE 3
RELATIVE_WEIGHT 40
RELATIVE_SETWIDTH 50
SUPERSCRIPT_X 0
SUPERSCRIPT_Y 6
SUPERSCRIPT_SIZE 10
SUBSCRIPT_X 0
SUBSCRIPT_Y 1
SUBSCRIPT_SIZE 10
AVG_LOWERCASE_WIDTH 104
AVG_UPPERCASE_WIDTH 99
ENDPROPERTIES
CHARS 331
STARTCHAR NULL.dup1
ENCODING 0
SWIDTH 161 0
DWIDTH 3 0
BBX 1 1 0 0
BITMAP
00
ENDCHAR
STARTCHAR CR
ENCODING 13
SWIDTH 161 0
DWIDTH 3 0
BBX 1 1 0 0
BITMAP
00
ENDCHAR
STARTCHAR space
ENCODING 32
SWIDTH 161 0
DWIDTH 3 0
BBX 1 1 0 0
BITMAP
00
ENDCHAR
STARTCHAR exclam
ENCODING 33
SWIDTH 350 0
DWIDTH 6 0
BBX 6 23 0 0
BITMAP
002000
5CFFD6
6FFFF9
2EFFF2
0CFFF2
0EFFE0
0EFFD0
0AFFA0
06FF80
03FFA0
01FF70
01FF70
01FF60
01FF50
008A20
000000
023552
4FFFF7
0DFFF6
0BFFF9
0BFFF8
0BFED6
022000
ENDCHAR
STARTCHAR quotedbl
ENCODING 34
SWIDTH 541 0
DWIDTH 10 0
BBX 9 8 0 6
BITMAP
0333113410
2FFF59FFB0
0EFF46FFA0
0BFF22FF70
08FF00EF60
05FD00BF30
02FB009F10
0031002100
ENDCHAR
STARTCHAR numbersign
ENCODING 35
SWIDTH 583 0
DWIDTH 11 0
BBX 11 17 0 -2
BITMAP
000000001000
00009800BA00
0000E501E700
0004F205F300
0259F349F310
07FFFFFFFD10
07FFFFFFFA00
05CFECFFD800
008D00BD0000
00C900D90000
01F601F50000
BEFDCDFE7000
CFFFFFFF2000
3AA65BA71000
1E300E400000
4F103F100000
250039000000
ENDCHAR
STARTCHAR dollar
ENCODING 36
SWIDTH 534 0
DWIDTH 10 0
BBX 9 23 0 -5
BITMAP
0000440000
0000B70000
0000C70000
0000D70000
0000B91000
005CFFE700
06FFFFFF90
0CFFFFFFD0
4FFFFFFFD0
5FFFFFFFC0
4FFF9DFFA0
3FFF65AA90
0EFFFD8000
03DFFFF800
00159EFE00
08BB38FF10
08FFBEFC00
01EFFFF400
0036CA4000
0000C50000
0000E50000
0000E50000
0000840000
ENDCHAR
STARTCHAR percent
ENCODING 37
SWIDTH 828 0
DWIDTH 15 0
BBX 15 17 0 -2
BITMAP
0000000001000000
000000004E300000
08DC4000CF000000
5FFFE201F9000000
6FFFF402F7000000
5F9DF404F4000000
5F4BF309D01AC400
3F5CE00E808FFE10
1FCF905F309FFF20
02AB20BD008FEF20
000002FA009FDF40
000005F500D9AF30
000004E000CEEC00
000009900017B200
00001E5000000000
00002F2000000000
0000150000000000
ENDCHAR
STARTCHAR ampersand
ENCODING 38
SWIDTH 522 0
DWIDTH 9 0
BBX 9 10 0 2
BITMAP
0004530000
000BFF2000
000BFF2000
266CFF5540
4FFFFFFF90
4FFFFFFF90
2BCEFFCC60
000BFF2000
000BFF1000
0007A90000
ENDCHAR
STARTCHAR quotesingle
ENCODING 39
SWIDTH 300 0
DWIDTH 5 0
BBX 5 8 0 6
BITMAP
033300
1FFF60
0DFF60
0BFF40
08FF10
05FF00
03FD00
003100
ENDCHAR
STARTCHAR parenleft
ENCODING 40
SWIDTH 372 0
DWIDTH 7 0
BBX 7 18 0 -2
BITMAP
00000220
0002AF50
002EFF40
00BFFF20
04FFFF00
0BFFFD00
0EFFFA00
2FFF6000
3FFF0000
4FFE0000
5FFD0000
4FFC0000
2FFE0000
0DFF4000
07FFC100
01FFF800
007FFB00
0007EA00
ENDCHAR
STARTCHAR parenright
ENCODING 41
SWIDTH 338 0
DWIDTH 6 0
BBX 6 18 0 -3
BITMAP
7CA200
6FFE20
5FFFD0
4FFFF2
3FFFF3
2FFFF3
14DFF3
007FF2
005FF1
005FF0
005FE0
007FC0
009FA0
00DF70
13EF20
6FF700
9FA000
241000
ENDCHAR
STARTCHAR asterisk
ENCODING 42
SWIDTH 513 0
DWIDTH 9 0
BBX 9 11 0 4
BITMAP
0000012000
003506C000
00DE1BF000
008FAFA000
003FFF5000
7ECFFFDD80
6FFFFFFF80
011DFF4000
001FDF9000
007F5DF000
006B148100
ENDCHAR
STARTCHAR plus
ENCODING 43
SWIDTH 458 0
DWIDTH 8 0
BBX 8 8 0 3
BITMAP
00154100
002FF500
023FF411
3FFFFFF6
3FFFFFF5
189FFA83
002FF500
001DD400
ENDCHAR
STARTCHAR comma
ENCODING 44
SWIDTH 361 0
DWIDTH 7 0
BBX 6 10 0 -3
BITMAP
012000
0FFFF7
1FFFF8
1FFFF9
2FFFF8
2FFFF8
0228F7
0007F5
000AF3
000790
ENDCHAR
STARTCHAR hyphen
ENCODING 45
SWIDTH 478 0
DWIDTH 9 0
BBX 7 4 1 5
BITMAP
9A998950
EFFFFF50
FFFFFF30
7BCAAB20
ENDCHAR
STARTCHAR period
ENCODING 46
SWIDTH 374 0
DWIDTH 7 0
BBX 6 7 0 0
BITMAP
012452
1EFFFB
0CFFFA
0BFFFC
0AFFFC
09FEEA
022000
ENDCHAR
STARTCHAR slash
ENCODING 47
SWIDTH 291 0
DWIDTH 5 0
BBX 7 16 -1 -2
BITMAP
00003E20
00009E00
0000EA00
0000F700
0004F300
0009E000
002F9000
005F4000
009E0000
00DC0000
00E70000
01F20000
06D00000
0C800000
1F400000
05100000
ENDCHAR
STARTCHAR zero
ENCODING 48
SWIDTH 528 0
DWIDTH 10 0
BBX 9 16 0 -2
BITMAP
0002431000
00AFFFD200
09FFFFFC10
1FFFFFFF70
2FFFFFFF70
1FFFFFFF90
0FFF8FFF90
0FFB0CFF90
0EFA0BFF80
0DFA09FF60
0CFB0BFF20
09FE0EFB00
07FFCFF800
02BFFFE200
0004CD4000
0000010000
ENDCHAR
STARTCHAR one
ENCODING 49
SWIDTH 366 0
DWIDTH 7 0
BBX 6 15 0 -1
BITMAP
000141
038DF8
CFFFF8
9CFFFA
01FFFB
00EFF9
00DFF7
00BFF4
00AFF5
009FF3
007FF1
006FF2
005FF1
0039F1
000021
ENDCHAR
STARTCHAR two
ENCODING 50
SWIDTH 575 0
DWIDTH 10 0
BBX 11 16 0 -2
BITMAP
000454100000
01AFFFF40000
0AFFFFFF4000
1FFFFFFFA000
1FFFFFFFD000
1FFFFFFFD000
0FFFBEFFB000
0DFF19FF9000
06673FFF6000
00004FFE1000
0000AFF70000
0008FFF74610
0ACFFFFFFE00
0EFFFFFEFB00
2FFDB937B700
023100017000
ENDCHAR
STARTCHAR three
ENCODING 51
SWIDTH 517 0
DWIDTH 9 0
BBX 9 15 0 -1
BITMAP
0003420000
03DFFF8000
2EFFFFF700
5FFFFFFF10
3FFFFFFF50
2FFFFFFF60
1FFF9FFF60
0EDA1FFF40
02017FFF00
0005FFFD00
000169FF30
004763FF40
00BFE8FE10
003FFFF800
000ACAA200
ENDCHAR
STARTCHAR four
ENCODING 52
SWIDTH 466 0
DWIDTH 8 0
BBX 8 19 0 -5
BITMAP
05444465
08FFFFA2
03FFFC00
07FFF700
07FFF400
0AFFD000
0AFFB000
08FF8000
09FF9DC4
0BFF5FF1
0DFD3FD0
1FFEAFD7
3FFFFFFC
5FFFFFFC
23146FD8
00000D70
00000D60
00000960
00000010
ENDCHAR
STARTCHAR five
ENCODING 53
SWIDTH 583 0
DWIDTH 11 0
BBX 10 15 0 -1
BITMAP
0556653210
1FFFFFFFFF
1FFFFFFFFD
0EFFFFFFFB
1FFFFFFFF8
0FFFFFFFF6
0EFFDFFFF4
2FFF002341
0CFF688700
09FFFFFB00
024469FF20
004773FF30
00AFE7FD00
002FFFF700
0009CAA100
ENDCHAR
STARTCHAR six
ENCODING 54
SWIDTH 582 0
DWIDTH 10 0
BBX 10 16 0 -2
BITMAP
0002221000
01CFFFFA10
1EFFFFFFC1
3FFFFFFFF8
4FFFFFFFFC
3FFFFFFFF9
1FFFBEFFF6
0EFF53FFF1
0BFF20BEE0
07FFBC8630
03FFD9DFE0
01FF909FF0
00EFD3BFE0
009FFFFFE0
001EEFEFA0
0002322300
ENDCHAR
STARTCHAR seven
ENCODING 55
SWIDTH 624 0
DWIDTH 11 0
BBX 12 16 0 -2
BITMAP
001234566551
8EFFFFFFFFE0
7FFFFFFFFFA0
4FFFFFFFFF40
1FFFFFFFFF20
0FFFFFFFFB00
0DFFFFDFF600
0332109FF400
000000DFD000
000005FF6000
00000AFE1000
00001FF60000
00005FF10000
0000BF900000
0002FF300000
00048A000000
ENDCHAR
STARTCHAR eight
ENCODING 56
SWIDTH 459 0
DWIDTH 8 0
BBX 8 16 0 -2
BITMAP
00354300
1BFFFFD2
4FFFFFF8
4FFFFFF8
2FFFFFF6
0FFFFFF4
0DFA8FF2
0AF94FE0
07FEAFA0
01EFFF30
04FCDF70
03F66F70
02FA8F60
00EFFF30
004A8700
00020000
ENDCHAR
STARTCHAR nine
ENCODING 57
SWIDTH 584 0
DWIDTH 11 0
BBX 10 17 0 -3
BITMAP
0000143000
004EFFFB20
03EFFFFFE3
0BFFFFFFF5
2FFFFFFFF8
3FFFFFFFFA
4FFFCAFFFB
2FFF90FFFB
0BFFFEFFF9
02DFFFFFF4
000433FFD0
06CD81FF90
07FFDBFF30
01EFFFF800
0037686300
0000230000
0000110000
ENDCHAR
STARTCHAR colon
ENCODING 58
SWIDTH 386 0
DWIDTH 7 0
BBX 6 16 0 0
BITMAP
001431
2EFFFC
0AFFFB
0BFFFC
0AFFFD
08FFFD
033000
000000
000000
013552
1FFFFA
0EFFFA
0CFFFD
0AFFFB
08FEDA
022000
ENDCHAR
STARTCHAR semicolon
ENCODING 59
SWIDTH 375 0
DWIDTH 7 0
BBX 6 19 0 -3
BITMAP
002541
3EFFFA
0DFFFA
0BFFFA
0CFFFA
0BFFF9
042000
000000
000000
021010
0FFEF9
0DFFF9
0DFFFA
0EFFF9
1FFFF9
0227F9
0007F6
0009F5
0006B2
ENDCHAR
STARTCHAR less
ENCODING 60
SWIDTH 459 0
DWIDTH 8 0
BBX 8 10 0 1
BITMAP
003FFFE7
006FFFA0
01EFFD10
1CFFF400
6FFF9000
1EFFE100
07FFF500
009FFE30
000BFFE4
000078B6
ENDCHAR
STARTCHAR equal
ENCODING 61
SWIDTH 485 0
DWIDTH 9 0
BBX 7 6 1 5
BITMAP
BEDDDD70
DFFFFF60
23432320
44455530
DFFFFF70
6BCAAA40
ENDCHAR
STARTCHAR greater
ENCODING 62
SWIDTH 432 0
DWIDTH 8 0
BBX 8 11 0 1
BITMAP
01111000
4FFFE100
09FFF300
00CFFD10
003EFFA0
0007FFF2
000DFFD0
005FFE50
04EFF700
3FFFC100
28872000
ENDCHAR
STARTCHAR question
ENCODING 63
SWIDTH 577 0
DWIDTH 10 0
BBX 9 16 0 -2
BITMAP
006EFFB100
07FFFFFE30
1FFFFFFFB0
1FFFFFFFF0
0FFFFFFFF0
0CFF6CFFE0
057719FFC0
00001EFF40
00005FFC00
00008FE200
0000AD7000
0000110000
0006894000
000AFF7000
0007FF8000
0006DC6000
ENDCHAR
STARTCHAR at
ENCODING 64
SWIDTH 930 0
DWIDTH 17 0
BBX 17 20 0 -4
BITMAP
000000565410000000
00002CFFFFD4000000
0002EFFDBCFF600000
001DE610103DF60000
009E25DFEF92EF3000
01F52FFFFFF67FD000
08E06FFFFFF81FF600
0DA06FFFFFF50CFC00
2F703FFFCFF30BFF10
5F600DF82FF109FF20
3F700B832FF007FF20
2F8008DFFFF104FF10
2FB00CF50EF702FD00
1FF10CF87FFF53F900
0BF50CFFFFDDFFF300
06FC04ABBA27DA4000
00CF70000000000000
003EF6000020000000
0003DFEEEFF2000000
000017CEDC82000000
ENDCHAR
STARTCHAR A
ENCODING 65
SWIDTH 494 0
DWIDTH 9 0
BBX 9 17 0 -4
BITMAP
3CEFFEDA20
03FFFFF600
01FFFFF000
00FFFFD000
02FFFFC000
01FFFFB000
01FFDFA000
01FF7FA000
02FE5FA000
01FD8F9000
03FFFFA000
03FFFF7000
00FD7F4000
00E84F3000
0073280000
0010060000
0000200000
ENDCHAR
STARTCHAR B
ENCODING 66
SWIDTH 517 0
DWIDTH 9 0
BBX 9 15 0 -1
BITMAP
0013543000
4DFFFFFE30
0BFFFFFFA0
03FFFFFFA0
02FFFFFF80
01FFFFFF60
00EFB7FF30
00EFB2FF10
00EFEAFC00
00EFFFF500
00BFCCF900
00AF84F900
008FB7F800
008FFFF500
0031978000
ENDCHAR
STARTCHAR C
ENCODING 67
SWIDTH 504 0
DWIDTH 9 0
BBX 9 16 0 -2
BITMAP
0003552000
01AFFFE600
0CFFFFFF30
4FFFFFFF90
7FFFFFFF90
7FFFFFFF90
5FFFBEFF80
3FFF27FF70
0FFF237630
0DFF000000
0AFF047400
08FF2AFC00
02FFCFF900
00EFFFD200
00196C4000
0004360000
ENDCHAR
STARTCHAR D
ENCODING 68
SWIDTH 522 0
DWIDTH 9 0
BBX 10 17 0 -3
BITMAP
0000012000
2ABDFFF900
2FFFFFFF90
0BFFFFFFE0
07FFFFFFF1
04FFFFFFF0
03FFF9FFD0
02FFC09FA0
00FFA08F70
00DFA08F40
00BFA0BF10
009FD3EF00
007FFEFD00
008CAFF700
00734E5000
0041380000
0000120000
ENDCHAR
STARTCHAR E
ENCODING 69
SWIDTH 570 0
DWIDTH 10 0
BBX 10 15 0 -1
BITMAP
0023432100
4FFFFFFFD5
0AFFFFFFF1
05FFFFFFD0
05FFFFFF80
04FFFFFF30
03FFD8BE00
01FFB00000
00FFFFD100
00DFFFF000
00CFC78000
00AFA44100
008FFFF500
0076EED200
0040A55000
ENDCHAR
STARTCHAR F
ENCODING 70
SWIDTH 559 0
DWIDTH 10 0
BBX 10 16 0 -2
BITMAP
0012201000
5FFFFFFEC2
07FFFFFFB0
00EFFFFF80
00CFFFFF50
00CFFFFF40
00BFFEEF30
007FF40420
007FFFFB00
007FFFFA00
004FF96600
004FF50000
006FF60000
007FF70000
0054950000
0010200000
ENDCHAR
STARTCHAR G
ENCODING 71
SWIDTH 499 0
DWIDTH 9 0
BBX 9 16 0 -2
BITMAP
0002210000
02BFFF9100
1FFFFFFD10
4FFFFFFF60
6FFFFFFF90
4FFFFFFF80
2FFE9FFF50
0FFB0CFF30
0DF9059A30
0BF94AA910
09FC4FFF30
07FE27FF20
04FFADFF10
00DFFFFB00
003A8CC200
0006112000
ENDCHAR
STARTCHAR H
ENCODING 72
SWIDTH 726 0
DWIDTH 13 0
BBX 13 18 0 -4
BITMAP
00002302221000
38AEFB0AFFFD40
0AFFF605FFFD00
06FFF607FFF600
04FFF609FFF100
01FFF509FFD000
00DFF509FFA000
00AFF51BFF5000
008FFFFFFF2000
006FFFFFFF0000
004FF83FFE0000
002FF71FFA0000
001FF72FF80000
001FF74FF60000
0018310CB50000
00000001110000
00000040000000
00000030000000
ENDCHAR
STARTCHAR I
ENCODING 73
SWIDTH 401 0
DWIDTH 7 0
BBX 7 15 0 -1
BITMAP
15544420
6FFFFF60
09FFFE10
01EFFC00
00DFFC00
00FFFA00
00FFF800
00EFF500
00DFF600
00BFF500
009FF300
007FF300
005FF200
003AF200
00137200
ENDCHAR
STARTCHAR J
ENCODING 74
SWIDTH 455 0
DWIDTH 8 0
BBX 9 15 -1 -1
BITMAP
0000222000
0002FFFF50
0000BFFF00
00007FFC00
00007FF600
00009FF400
0000AFF400
0000AFF100
00009FE000
0361AFB000
5FF1AFA000
2FF2DF8000
1FFEFF4000
07EBFD0000
0012720000
ENDCHAR
STARTCHAR K
ENCODING 75
SWIDTH 580 0
DWIDTH 10 0
BBX 10 15 0 -1
BITMAP
0241202200
6FFFE0CFE9
09FFE0EFC1
02FFF3FC10
00CFF9F800
009FFFF400
008FFFF300
007FFFF500
004FFFF500
002FFFF600
001FFFF700
000EE7FB00
000DD0EE00
000BF1BF20
0004315510
ENDCHAR
STARTCHAR L
ENCODING 76
SWIDTH 416 0
DWIDTH 8 0
BBX 9 16 0 -2
BITMAP
3443241000
4FFFFA1000
0CFFE20000
0AFFD00000
08FFE00000
08FFD00000
06FFB00000
02FFD00000
02FFD00000
01EFD00000
00DFD00000
00CFF75610
00AFFFFD00
006FFEFA00
001586A600
0000102000
ENDCHAR
STARTCHAR M
ENCODING 77
SWIDTH 740 0
DWIDTH 13 0
BBX 13 15 0 -1
BITMAP
00247708572000
5FFFFC0BFFFE60
0AFFFF1EFFF900
05FFFF8FFFF700
04FFFFEFFFF400
01FFFFFFFFF200
00DFFFFFFFF200
00DFFFFFFFF200
00BFFDFFDFF200
007FF9FCCFF100
005FF7FAAFF000
002FF7F9AFB000
001FF5E5BFA000
000CA482898000
00061000022000
ENDCHAR
STARTCHAR N
ENCODING 78
SWIDTH 610 0
DWIDTH 11 0
BBX 11 17 0 -3
BITMAP
000130420000
4EFFF1BFEC30
1AFFF48FF900
06FFFA7FF300
05FFFE8FF200
04FFFFDFF000
02FFFFFFD000
01FFFFFFB000
00DFFFFF9000
00AFEFFF8000
007FBEFF7000
006FA9FF6000
005FB5FF6000
004FC1FF3000
003EA0CC1000
002440440000
000340200000
ENDCHAR
STARTCHAR O
ENCODING 79
SWIDTH 504 0
DWIDTH 9 0
BBX 9 16 0 -2
BITMAP
0002320000
01AFFFB400
0CFFFFFE40
5FFFFFFF70
7FFFFFFF90
5FFFFFFF70
4FFF8FFF80
1FFC0CFF90
0EFA0AFF80
0CFB09FF50
0AFC0BFF00
06FF1DFC00
05FFCFF800
01CFFFF200
000A2D7000
0001051000
ENDCHAR
STARTCHAR P
ENCODING 80
SWIDTH 545 0
DWIDTH 10 0
BBX 10 15 0 -1
BITMAP
0012344200
4EFFFFFF80
07FFFFFFF2
01FFFFFFF5
00FFFFFFF2
00DFFFFFF0
00BFF88FE0
008FF63FD0
006FF63FB0
003FFEDF90
002FFFFE20
001EF72100
000FF70000
000CF70000
0006760000
ENDCHAR
STARTCHAR Q
ENCODING 81
SWIDTH 520 0
DWIDTH 9 0
BBX 10 17 0 -3
BITMAP
0000220000
005CFFD200
0BFFFFFF30
1FFFFFFFA0
7FFFFFFFD0
8FFFFFFFE0
7FFFB5FFD0
3FFF72FFC0
0EFF60FFC0
0BFF50FFB0
08FF92FF90
03FFE6FF70
00AFFFFF10
000BFFFF91
0001AACFC0
0000001C10
0000000200
ENDCHAR
STARTCHAR R
ENCODING 82
SWIDTH 599 0
DWIDTH 11 0
BBX 11 16 0 -2
BITMAP
000244220000
5CEFFFFFA200
0BFFFFFFFD20
01FFFFFFFF50
00BFFFFFFF50
00AFFFFFFF50
009FF94EFF30
007FF70CFF20
004FFC7FFD00
001FFFFFF800
000CFEEFD000
000CF97FF200
000AFA5FF300
0009FB3FF300
00039409C600
000010000000
ENDCHAR
STARTCHAR S
ENCODING 83
SWIDTH 504 0
DWIDTH 9 0
BBX 9 16 0 -2
BITMAP
0000240000
007DFFD500
09FFFFFF60
1EFFFFFFA0
6FFFFFFF90
8FFFFFFF80
8FFF8EFF70
6FFF279A70
2FFFEC5000
05EFFFF700
0016AFFE00
09CB1BFE00
0BFFAFFA00
04FFFFF200
0068677000
0000010000
ENDCHAR
STARTCHAR T
ENCODING 84
SWIDTH 622 0
DWIDTH 11 0
BBX 11 16 0 -2
BITMAP
000233210000
2CFFFFFFDA50
0BFFFFFFFE20
06FFFFFFFB00
03FFFFFFFC00
02FFFFFFFA00
01FFFFFDF800
00429FF41200
00007FF50000
00008FF40000
00008FF40000
00007FF20000
00005FF20000
00005FF30000
00006FF20000
000067500000
ENDCHAR
STARTCHAR U
ENCODING 85
SWIDTH 637 0
DWIDTH 11 0
BBX 11 15 0 -1
BITMAP
013441110000
4EFFF04FFC70
09FFF06FFF30
07FFE06FFE00
05FFF26FFB00
03FFF27FF800
01FFF28FF400
00EFE08FF200
00DFD0AFF100
00DFF0BFE000
00CFF2CFC000
008FF7EFA000
005FFFFF6000
001CE6B91000
000321410000
ENDCHAR
STARTCHAR V
ENCODING 86
SWIDTH 570 0
DWIDTH 10 0
BBX 11 16 0 -2
BITMAP
013420433310
6FFF40DFFB00
08FF61FFF300
03FF63FFC000
02FF76FF7000
01FF88FF3000
00FF9BFE0000
00EF8DFB0000
00CFAFF80000
00AFCFF50000
009FFFF10000
005FFFD00000
002FFFA00000
000FFF500000
000BFE200000
000024000000
ENDCHAR
STARTCHAR W
ENCODING 87
SWIDTH 777 0
DWIDTH 14 0
BBX 14 15 0 -1
BITMAP
00001069023100
26AED0CF15FFC6
4DFFE1FF4AFFB1
01EFF5FF7DFE20
006FF9FFDFF600
004FFEFFFFE000
001DFFFFFF9000
0006FFFFFF7000
0001FFFFFF6000
0000DFEEFF2000
00009FCCFE0000
00006FAAFA0000
00002F89F40000
00000878E20000
00000010000000
ENDCHAR
STARTCHAR X
ENCODING 88
SWIDTH 587 0
DWIDTH 11 0
BBX 11 15 0 -1
BITMAP
001210200000
4CEFE1DFC940
04EFF3FFE600
006FFDFF3000
000DFFFB0000
0008FFF70000
0005FFF50000
0005FFF10000
0002FFD00000
0000EFC00000
0002FFD00000
0005FFF00000
0008FAF50000
000BF5F90000
001B72580000
ENDCHAR
STARTCHAR Y
ENCODING 89
SWIDTH 688 0
DWIDTH 12 0
BBX 13 15 0 -1
BITMAP
00234001300000
4DFFF606FDA510
019FFE19FFF920
000AFF9FFF7000
0001CFFFF90000
00006FFFF20000
00000EFFF00000
000009FFD00000
000004FFC00000
000000FFB00000
000000DFA00000
000000BF900000
000000AF800000
0000008F700000
00000056200000
ENDCHAR
STARTCHAR Z
ENCODING 90
SWIDTH 695 0
DWIDTH 13 0
BBX 13 15 0 -1
BITMAP
00144444200000
3CFFFFFFFDA620
1EFFFFFFFFFB00
08FFFFFFFFF300
01FFFFFFFFB000
00CFFFFFFF4000
00BFBBFFFA0000
00630BFF910000
00003FFB000000
00008FE2000000
0000CF70000000
0004FF86200000
000CFFFF700000
000DDFFF200000
00021245000000
ENDCHAR
STARTCHAR bracketleft
ENCODING 91
SWIDTH 410 0
DWIDTH 7 0
BBX 7 17 1 -1
BITMAP
57665200
BFFFFB00
BFFFFB00
BFFFFB00
BFE32200
DFD00000
CFD00000
DFD00000
DFE00000
EFE00000
FFE00000
EFE00000
DFE00000
AFE00000
8FFEFE10
6FFCF800
23224000
ENDCHAR
STARTCHAR backslash
ENCODING 92
SWIDTH 292 0
DWIDTH 5 0
BBX 6 16 0 -2
BITMAP
C80000
9D0000
5F4000
2F5000
0E9000
09D000
05F600
01EA00
00AD00
007F20
002F40
000C50
0008A0
0003F1
0000E5
000052
ENDCHAR
STARTCHAR bracketright
ENCODING 93
SWIDTH 407 0
DWIDTH 7 0
BBX 7 17 0 -1
BITMAP
06777600
7FFFFE00
7FFFFE00
7FFFFE00
123AFE00
0008FF10
0008FF10
0007FF20
0006FF30
0006FF40
0006FF40
0006FF40
0007FF20
0007FF20
AEFFFF20
8FFFFF30
02332610
ENDCHAR
STARTCHAR asciicircum
ENCODING 94
SWIDTH 523 0
DWIDTH 9 0
BBX 9 8 0 12
BITMAP
0001021000
003FFF8000
00AFFFE100
02FFDFF900
08FF2BFF20
1EF902FF90
2CC1007E30
0010000200
ENDCHAR
STARTCHAR underscore
ENCODING 95
SWIDTH 452 0
DWIDTH 8 0
BBX 8 4 0 -1
BITMAP
14433341
2FFFFFF2
2FFFFFF2
16666561
ENDCHAR
STARTCHAR grave
ENCODING 96
SWIDTH 444 0
DWIDTH 8 0
BBX 6 6 1 13
BITMAP
010000
0A9000
1EFB10
BFFFD3
026AEC
000002
ENDCHAR
STARTCHAR a
ENCODING 97
SWIDTH 479 0
DWIDTH 9 0
BBX 9 16 0 -2
BITMAP
0245655640
6FFFFFFD10
06FFFFF700
02FFFFF400
01FFFFF400
02FFFFF300
01FFFFF200
00EFEFF200
01FF9FF300
03FF4FF300
04FF1FF400
03FFCFF300
05FFFFF100
03FF3EF000
03FA0CE000
0183012000
ENDCHAR
STARTCHAR b
ENCODING 98
SWIDTH 610 0
DWIDTH 11 0
BBX 11 16 0 -2
BITMAP
000012232000
3ACEFFFFFA00
1DFFFFFFFF30
04FFFFFFFF70
00AFFFFFFF80
00BFFFFFFF80
008FFC8FFF40
005FF90DFE00
004FFC5EF800
003FFFFFD100
002FFFEFD200
000EF91FF600
000BF90FF400
0009FFCFF100
00088CDF9000
000000031000
ENDCHAR
STARTCHAR c
ENCODING 99
SWIDTH 534 0
DWIDTH 10 0
BBX 10 15 0 -1
BITMAP
0002563000
009FFFFA10
0BFFFFFFB0
4FFFFFFFF3
7FFFFFFFF2
7FFFFFFFF2
4FFFECFFF1
1FFF61FFE0
0CFF709BA0
0BFF500000
08FF606300
04FF94FF10
01EFDBFE00
009FFFF700
00268A9000
ENDCHAR
STARTCHAR d
ENCODING 100
SWIDTH 573 0
DWIDTH 10 0
BBX 11 16 0 -2
BITMAP
000134100000
2CEFFFFD4000
1FFFFFFFE300
0AFFFFFFFD00
05FFFFFFFF10
01FFFFFFFF10
00CFFFFFFE00
009FF84FFB00
006FF60EF700
004FF50DF300
001FF60FD000
000EF53FA000
000DF89F8000
000DFFFF3000
000CACFD0000
000804830000
ENDCHAR
STARTCHAR e
ENCODING 101
SWIDTH 632 0
DWIDTH 11 0
BBX 11 16 0 -2
BITMAP
000133321000
4BEFFFFFFD70
1DFFFFFFFF20
06FFFFFFFA00
03FFFFFFF600
01FFFFFFF400
00DFFDCEF200
00BFF8004000
008FFB881000
005FFFFF2000
004FFFEF1000
002FF8010000
000EFCCB4000
000CFFFF4000
000718783000
000000011000
ENDCHAR
STARTCHAR f
ENCODING 102
SWIDTH 559 0
DWIDTH 10 0
BBX 10 16 0 -2
BITMAP
0113312000
5FFFFFFFC2
07FFFFFFB0
00EFFFFF70
00CFFFFF50
00CFFFFF40
00BFFEEF30
008FF31420
007FFFF700
007FFFF600
005FF96600
005FF50000
007FF50000
007FF60000
0053940000
0010320000
ENDCHAR
STARTCHAR g
ENCODING 103
SWIDTH 546 0
DWIDTH 10 0
BBX 10 16 0 -2
BITMAP
0002220000
01DFFFE910
2EFFFFFFB0
5FFFFFFFF3
7FFFFFFFF7
5FFFFFFFF7
3FFFBEFFF5
0FFF25FFF1
0DFF11BEF0
09FF176310
05FF5BFFD0
03FF78DFB0
01FFD3CFB0
00BFFFFFA0
002EEFEF50
0002331200
ENDCHAR
STARTCHAR h
ENCODING 104
SWIDTH 730 0
DWIDTH 13 0
BBX 13 15 0 -1
BITMAP
00014604553200
3ADFFA08FFFF60
08FFF803FFFD00
05FFF805FFF700
03FFF707FFF200
01FFF707FFF000
00CFF607FFB000
009FF83AFF7000
006FFFFFFF3000
004FFFFFFF2000
004FF80EFF0000
003FF80FFC0000
001FF80FFA0000
000FF82EF80000
0016100A860000
ENDCHAR
STARTCHAR i
ENCODING 105
SWIDTH 412 0
DWIDTH 7 0
BBX 7 15 0 -1
BITMAP
02444200
5FFFFF90
08FFFF30
00DFFD00
00CFFC00
00DFF800
00DFF600
00CFF500
00AFF500
008FF500
005FF200
004FF100
003FF000
002DE000
00016000
ENDCHAR
STARTCHAR j
ENCODING 106
SWIDTH 458 0
DWIDTH 8 0
BBX 9 15 -1 -1
BITMAP
0002441000
0008FFFD60
0002FFFF30
0000EFFE00
0000AFFA00
0000AFFA00
0000AFF900
0000AFF900
00007FF700
03527FF500
4FF47FF400
0EF98FF200
0CFFFFE000
03DFFF9000
0001454000
ENDCHAR
STARTCHAR k
ENCODING 107
SWIDTH 636 0
DWIDTH 11 0
BBX 11 15 0 -1
BITMAP
000113124300
5CFFE84FFF80
09FFF68FF700
03FFF6BF8000
00BFF8DF3000
005FF9EF1000
004FFBF90000
003FFEF40000
002FFFF30000
000DFFF70000
000BFFFC0000
0009F9DF2000
0008F66F8000
0006F71FD000
000133075000
ENDCHAR
STARTCHAR l
ENCODING 108
SWIDTH 438 0
DWIDTH 8 0
BBX 9 16 0 -2
BITMAP
0034456200
3DFFFF5000
07FFFA0000
05FFF70000
03FFF70000
01FFF50000
01EFF60000
009FF50000
007FF40000
007FF30000
005FF40000
004FFB7630
002FFFFF10
000FFCFD00
000922A900
0001001000
ENDCHAR
STARTCHAR m
ENCODING 109
SWIDTH 770 0
DWIDTH 14 0
BBX 14 16 0 -2
BITMAP
00001413565100
159DFF35FFFFB2
2DFFFF49FFFE20
06FFFF8DFFFA00
05FFFFCFFFF600
04FFFFFFFFF300
00FFFFFFFFF100
01EFFFFFFFE000
00DFFEFEFFB000
00BFFBFBFF9000
008FF8F8FF6000
006FF8F7FF2000
006FF5D6FB0000
003CC2A8C90000
00170011120000
00010000000000
ENDCHAR
STARTCHAR n
ENCODING 110
SWIDTH 664 0
DWIDTH 12 0
BBX 12 16 0 -2
BITMAP
123453131111
6FFFF90FFFF6
0CFFFD0BFFC0
08FFFF4BFF60
07FFFF7DFF20
06FFFFCFFF00
05FFFFFFFD00
03FFFFFFFB00
01FFFFFFF900
00DFDFFFF600
00BFBCFFF400
00AFA8FFF100
008FA5FFD000
006F91FF7000
005C60EC4000
000000241000
ENDCHAR
STARTCHAR o
ENCODING 111
SWIDTH 545 0
DWIDTH 10 0
BBX 10 16 0 -2
BITMAP
0002432000
01AFFFFA10
0BFFFFFFA0
5FFFFFFFF5
7FFFFFFFF5
5FFFFFFFF6
3FFFACFFF6
1FFF17FFF5
0EFF05FFF2
0CFF04FFD0
09FF16FF90
05FF59FF40
01FFDEFF10
009DFFF900
00022B9300
0000011100
ENDCHAR
STARTCHAR p
ENCODING 112
SWIDTH 557 0
DWIDTH 10 0
BBX 10 15 0 -1
BITMAP
0023222100
4FFFFFFF80
07FFFFFFF4
01FFFFFFF8
00FFFFFFF7
00EFFFFFF5
00DFF8AFF3
00BFF43FF1
009FF44FE0
007FFCEFA0
004FFFFF40
003FF73400
002FF60000
001FF70000
000A940000
ENDCHAR
STARTCHAR q
ENCODING 113
SWIDTH 562 0
DWIDTH 10 0
BBX 10 17 0 -3
BITMAP
0000453000
006DFFFC20
0CFFFFFFE2
2FFFFFFFF7
7FFFFFFFF9
8FFFFEFFFA
6FFFD0AFF9
2FFFA08FF8
0DFF904FF7
0BFF904FF6
08FFC1AFF5
02FFF7FFF2
007FFFFFC0
0008FFFFF8
0000697DF6
00000002A0
0000000010
ENDCHAR
STARTCHAR r
ENCODING 114
SWIDTH 616 0
DWIDTH 11 0
BBX 11 16 0 -2
BITMAP
000144210000
4BEFFFFFB500
0BFFFFFFFF70
01EFFFFFFFB0
00BFFFFFFF90
009FFFFFFF70
008FFC4EFF40
006FF90BFF10
006FFD6EFE00
003FFFFFF900
001FFFFFD200
001FF99FB000
000FF98FB000
000FF87FC000
000C834DD000
000000004000
ENDCHAR
STARTCHAR s
ENCODING 115
SWIDTH 481 0
DWIDTH 9 0
BBX 9 15 0 -1
BITMAP
0002420000
009FFFC200
09FFFFFD10
2FFFFFFF40
7FFFFFFF20
7FFFFFFF00
7FFF9FFE00
6FFE1BDD00
1FFFC91300
08FFFFA000
004AEFF200
04772FF300
0AFF7FF100
03FFFF8000
009DAA2000
ENDCHAR
STARTCHAR t
ENCODING 116
SWIDTH 683 0
DWIDTH 12 0
BBX 12 17 0 -3
BITMAP
000355554200
4CEFFFFFFFE6
1DFFFFFFFFF2
07FFFFFFFF90
02FFFFFFFF80
00EFFFFFFF70
00CFEFFFCF60
00631FFF1120
00000EFF2000
00000EFF1000
00000DFF1000
00000BFF0000
000009FF1000
000009FE0000
000008FE0000
0000049C0000
000000020000
ENDCHAR
STARTCHAR u
ENCODING 117
SWIDTH 708 0
DWIDTH 13 0
BBX 13 15 0 -1
BITMAP
00034300000000
3CFFFB05FCB610
08FFFA07FFFE40
05FFFA07FFF800
01FFFD06FFF300
00DFFE06FFD000
00BFFE07FFA000
008FFC08FF7000
007FFB0BFF6000
006FFD0AFF5000
002FFF1DFF2000
000CFF6FFE0000
0009FFFFFA0000
0003AC5CB40000
00000001000000
ENDCHAR
STARTCHAR v
ENCODING 118
SWIDTH 644 0
DWIDTH 12 0
BBX 12 16 0 -2
BITMAP
002340033100
2DFFE00FFFC2
05FFF14FFF20
01DFF46FFB00
00AFF67FF700
007FF78FF400
004FFA9FF100
001FFBAFD000
000CFCBFA000
0008FDDF6000
0002FFFF4000
0000DFFE1000
00009FFB0000
00002FF90000
00000DC30000
000001000000
ENDCHAR
STARTCHAR w
ENCODING 119
SWIDTH 704 0
DWIDTH 13 0
BBX 13 14 0 0
BITMAP
00000141100000
4ADF64F44EC930
1AFF87F85FFA10
01EFA9FC7FF400
008FEBFFCFC000
006FFEFFFF6000
002FFFFFFF1000
0009FFFFFE0000
0005FFFFFC0000
0002FFEFFB0000
0000DFAEFB0000
00008F9DF80000
00004F7AF50000
00000939D40000
ENDCHAR
STARTCHAR x
ENCODING 120
SWIDTH 599 0
DWIDTH 11 0
BBX 11 15 0 -1
BITMAP
001320310000
4CFFF1CFEB50
02DFF4FFE600
005FFDFF4000
000CFFFC0000
0006FFF80000
0004FFF60000
0004FFF20000
0001EFE00000
0000DFD00000
0002FFE00000
0004FFF20000
0007F9F70000
000AF4FB0000
000B62470000
ENDCHAR
STARTCHAR y
ENCODING 121
SWIDTH 604 0
DWIDTH 11 0
BBX 11 16 0 -2
BITMAP
002310110000
2DFFA07EB820
02CFF2BFF800
001FF9FFA000
0008FFFE1000
0003FFF90000
0000EFF80000
0000BFF60000
00008FF50000
00005FF40000
00003FF20000
00004FF30000
00004FF10000
00004FD00000
00002C800000
000001000000
ENDCHAR
STARTCHAR z
ENCODING 122
SWIDTH 622 0
DWIDTH 11 0
BBX 11 15 0 -1
BITMAP
002545541000
3DFFFFFFFD50
0EFFFFFFFF30
06FFFFFFFB00
00EFFFFFF600
00BFFFFFF400
009FCCFFB000
00540DFC1000
00005FF40000
00008FB00000
0000CF500000
0002FE540000
0008FFFF3000
000AFFFF1000
0004345A0000
ENDCHAR
STARTCHAR braceleft
ENCODING 123
SWIDTH 372 0
DWIDTH 7 0
BBX 7 18 0 -2
BITMAP
00000220
0002AF50
002EFF40
00BFFF20
04FFFF00
0BFFFD00
0EFFFA00
2FFF6000
3FFF0000
4FFE0000
5FFD0000
4FFC0000
2FFE0000
0DFF4000
07FFC100
01FFF800
007FFB00
0007EA00
ENDCHAR
STARTCHAR bar
ENCODING 124
SWIDTH 208 0
DWIDTH 4 0
BBX 2 17 1 -2
BITMAP
34
C8
DA
F8
BA
C7
D6
D7
D7
D8
D8
D7
B6
B6
D5
D6
85
ENDCHAR
STARTCHAR braceright
ENCODING 125
SWIDTH 338 0
DWIDTH 6 0
BBX 6 18 0 -3
BITMAP
7CA200
6FFE20
5FFFD0
4FFFF2
3FFFF3
2FFFF3
14DFF3
007FF2
005FF1
005FF0
005FE0
007FC0
009FA0
00DF70
13EF20
6FF700
9FA000
241000
ENDCHAR
STARTCHAR asciitilde
ENCODING 126
SWIDTH 535 0
DWIDTH 10 0
BBX 9 4 0 10
BITMAP
04A106E800
3FFBCFFF80
0AFFFFFFA0
019D814800
ENDCHAR
STARTCHAR exclamdown
ENCODING 161
SWIDTH 347 0
DWIDTH 6 0
BBX 6 23 0 0
BITMAP
022000
0BFED7
0AFFF8
0AFFF9
0DFFF7
3FFFF8
023562
000000
007930
00FF60
00FF70
00FF70
01FF80
02FFB0
05FF90
09FFB0
0EFFD0
0DFFF0
0BFFF3
1EFFF3
5FFFF9
5DFFD6
002000
ENDCHAR
STARTCHAR cent
ENCODING 162
SWIDTH 552 0
DWIDTH 10 0
BBX 10 26 0 -7
BITMAP
0000240000
0000560000
0000770000
0000770000
0000770000
00018A4000
008FFFFC10
0AFFFFFFC0
4FFFFFFFF4
7FFFFFFFF3
6FFFFFFFF3
3FFFEBFFF2
0EFF71EFF0
0BFF8089B0
0AFF600000
07FF706300
03FFA3FF20
01EFEAFE00
009FFFF800
0026BC9000
0000460000
0000560000
0000560000
0000670000
0000570000
0000330000
ENDCHAR
STARTCHAR sterling
ENCODING 163
SWIDTH 589 0
DWIDTH 11 0
BBX 10 16 0 -2
BITMAP
0001221000
00BFFFFA10
0DFFFFFFD1
2FFFFFFFF9
3FFFFFFFFE
2FFFFFFFFE
0FFFCDFFFA
0CFF62FFF5
09FF40ADF2
3FFFE80010
15EFC30000
00EFE97670
01FFFFFF70
03FFDFFF20
014659AB00
0000002100
ENDCHAR
STARTCHAR yen
ENCODING 165
SWIDTH 692 0
DWIDTH 12 0
BBX 14 15 -1 1
BITMAP
14456500441000
06EFFE10BFFFC4
001BFF91EFFE10
0002EFEAFFE300
00003FFFFF5000
00000DFFFF0000
00788DFFFFDC80
008BBAFFFC6940
001211CFF92220
00CFFFFFFFFFC0
001234BFF72220
0000008FF50000
0000006FF50000
0000002FF60000
00000007330000
ENDCHAR
STARTCHAR brokenbar
ENCODING 166
SWIDTH 201 0
DWIDTH 4 0
BBX 3 17 0 -2
BITMAP
0510
0E60
0F80
0D90
1F60
0D60
0640
0000
0000
0000
0630
0D70
0C50
0C50
0B70
0C80
0850
ENDCHAR
STARTCHAR section
ENCODING 167
SWIDTH 477 0
DWIDTH 9 0
BBX 9 18 0 -4
BITMAP
0002661000
006FFFE600
03FFFFFF20
09FFFFFE00
09FFFFFA00
07FFAFF600
05FF57A200
03FFFC7000
0BFFFFF100
6FF73EF400
8FF61EF100
6FFC7F9000
1EFFFF4000
028CFF3000
0795BF5000
0BFDEE1000
04FFF80000
0042100000
ENDCHAR
STARTCHAR dieresis
ENCODING 168
SWIDTH 633 0
DWIDTH 11 0
BBX 9 5 1 14
BITMAP
5975069CA0
BFFB0BFFE0
CFFB0AFFE0
BFFB0AFFF0
5896047660
ENDCHAR
STARTCHAR copyright
ENCODING 169
SWIDTH 783 0
DWIDTH 14 0
BBX 14 16 0 -2
BITMAP
000039CC930000
0019E8678C9000
00BD25CEA16A00
06F25FFFFA0850
0D80CFFFFF11C0
3F20EFFFFF10A3
4E00EFFEFF1085
5D00CFB4FE0096
4F00AFA16600A5
3F108F900000C3
0E405FA4F702E0
09A02FECF60980
02E50BFFC06E10
005E712339F500
0004DFCDFD4000
00000355300000
ENDCHAR
STARTCHAR guillemotleft
ENCODING 171
SWIDTH 759 0
DWIDTH 14 0
BBX 13 10 0 1
BITMAP
000ADDC14EEEA0
004FFF20CFFD10
01DFF908FFF400
0BFFE21EFFB000
4FFF606FFE2000
2FFF404FFF4000
07FFC009FFA000
009FF801DFF500
000CFF702EFF40
0001AAB2059BA0
ENDCHAR
STARTCHAR uni00AD
ENCODING 173
SWIDTH 446 0
DWIDTH 8 0
BBX 6 3 1 5
BITMAP
665546
FFFFFF
7BBA9B
ENDCHAR
STARTCHAR registered
ENCODING 174
SWIDTH 780 0
DWIDTH 14 0
BBX 14 16 0 -2
BITMAP
000048AA710000
001BF831396000
00CF99A9606700
07F8FFFFFA0940
0D80CFFFFF02C0
3F209FFFFF00D2
6E008FC6FE00C6
3C006FB3FC00D7
1B003FFFF800C4
0E000EFDF200A1
0B6009F5DA0090
05E306F7CE0280
00BE4262594C20
001BFA545AE400
00007DFFFA2000
00000023100000
ENDCHAR
STARTCHAR macron
ENCODING 175
SWIDTH 446 0
DWIDTH 8 0
BBX 6 3 1 5
BITMAP
665546
FFFFFF
7BBAAB
ENDCHAR
STARTCHAR acute
ENCODING 180
SWIDTH 439 0
DWIDTH 8 0
BBX 6 6 1 13
BITMAP
000010
001A80
01CFD1
4DFFF9
DEA610
200000
ENDCHAR
STARTCHAR mu
ENCODING 181
SWIDTH 679 0
DWIDTH 12 0
BBX 13 15 0 -1
BITMAP
00134200000000
6EFFF50AEBA410
0DFFF40CFFFC20
0AFFF50CFFF300
06FFF80BFFD000
04FFF90CFF8000
01FFF90CFF4000
00DFF60DFF2000
00CFF61FFF1000
00BFF71FFE0000
008FF84FFB0000
002FFB9FF90000
000EFFFFF50000
0006C7ACB00000
00000002000000
ENDCHAR
STARTCHAR paragraph
ENCODING 182
SWIDTH 591 0
DWIDTH 11 0
BBX 11 15 0 -1
BITMAP
000222431000
08EFFFFFFE60
5FFFFFFFF900
7FFFFF88F300
5FFFFF66F200
3FFFFF67F000
0EFFFF58F000
09FFFF48E000
02EFEF48C000
00120D489000
00000D386000
00000C385000
00000D385000
00000D284000
000009173000
ENDCHAR
STARTCHAR periodcentered
ENCODING 183
SWIDTH 388 0
DWIDTH 7 0
BBX 6 6 0 4
BITMAP
156996
0DFFFC
0BFFFC
09FFFD
08FFFC
07CA98
ENDCHAR
STARTCHAR cedilla
ENCODING 184
SWIDTH 270 0
DWIDTH 5 0
BBX 5 6 0 -6
BITMAP
08D000
0D7000
1FCA10
059F10
038F00
1DEE00
ENDCHAR
STARTCHAR guillemotright
ENCODING 187
SWIDTH 767 0
DWIDTH 14 0
BBX 14 11 0 1
BITMAP
01111000000000
4FFFE02DCB1000
09FFF307FFC100
00CFFC009FF900
003FFF801FFF50
0008FFE008FFF1
000DFFA008FFF3
007FFE303FFFB0
06FFF600CFFE20
3FFFC006FFF400
2887201CDD9000
ENDCHAR
STARTCHAR Agrave
ENCODING 192
SWIDTH 494 0
DWIDTH 9 0
BBX 10 24 -1 -4
BITMAP
0010000000
06C1000000
0BFD300000
7FFFE60000
0159DF1000
0000020000
0000000000
03CEFFEDA2
003FFFFF60
001FFFFF00
000FFFFD00
002FFFFC00
001FFFFB00
001FFDFA00
001FF7FA00
002FE5FA00
001FD8F900
003FFFFA00
003FFFF700
000FD7F400
000E84F300
0007328000
0001006000
0000020000
ENDCHAR
STARTCHAR Aacute
ENCODING 193
SWIDTH 494 0
DWIDTH 9 0
BBX 11 24 0 -4
BITMAP
000000001000
00000003D300
0000005EF800
000007FFFE50
00004FC84000
000002000000
000000000000
3CEFFEDA2000
03FFFFF60000
01FFFFF00000
00FFFFD00000
02FFFFC00000
01FFFFB00000
01FFDFA00000
01FF7FA00000
02FE5FA00000
01FD8F900000
03FFFFA00000
03FFFF700000
00FD7F400000
00E84F300000
007328000000
001006000000
000020000000
ENDCHAR
STARTCHAR Acircumflex
ENCODING 194
SWIDTH 494 0
DWIDTH 9 0
BBX 9 25 0 -4
BITMAP
005AAC1000
00DFFF8000
05FFFFE100
0BFB4FF800
3FD106FE10
8E20008E30
0200000200
0000000000
3CEFFEDA20
03FFFFF600
01FFFFF000
00FFFFD000
02FFFFC000
01FFFFB000
01FFDFA000
01FF7FA000
02FE5FA000
01FD8F9000
03FFFFA000
03FFFF7000
00FD7F4000
00E84F3000
0073280000
0010060000
0000200000
ENDCHAR
STARTCHAR Atilde
ENCODING 195
SWIDTH 494 0
DWIDTH 9 0
BBX 9 23 0 -4
BITMAP
0220036100
4ED38EFC00
6FFFFFFF60
09FFC7DB10
0034001000
0000000000
3CEFFEDA20
03FFFFF600
01FFFFF000
00FFFFD000
02FFFFC000
01FFFFB000
01FFDFA000
01FF7FA000
02FE5FA000
01FD8F9000
03FFFFA000
03FFFF7000
00FD7F4000
00E84F3000
0073280000
0010060000
0000200000
ENDCHAR
STARTCHAR Adieresis
ENCODING 196
SWIDTH 494 0
DWIDTH 9 0
BBX 9 23 0 -4
BITMAP
697407AC90
DFFA0CFFD0
DFFA0CFFD0
DFF90CFFD0
6895057650
0000000000
3CEFFEDA20
03FFFFF600
01FFFFF000
00FFFFD000
02FFFFC000
01FFFFB000
01FFDFA000
01FF7FA000
02FE5FA000
01FD8F9000
03FFFFA000
03FFFF7000
00FD7F4000
00E84F3000
0073280000
0010060000
0000200000
ENDCHAR
STARTCHAR Aring
ENCODING 197
SWIDTH 494 0
DWIDTH 9 0
BBX 9 24 0 -4
BITMAP
0001420000
005FFF5000
00DB4BE000
00A806C000
007FBE4000
0015B70000
0000000000
3CEFFEDA20
03FFFFF600
01FFFFF000
00FFFFD000
02FFFFC000
01FFFFB000
01FFDFA000
01FF7FA000
02FE5FA000
01FD8F9000
03FFFFA000
03FFFF7000
00FD7F4000
00E84F3000
0073280000
0010060000
0000200000
ENDCHAR
STARTCHAR AE
ENCODING 198
SWIDTH 733 0
DWIDTH 13 0
BBX 13 18 0 -4
BITMAP
00001234320000
3CEFFFFFFFFD50
03FFFFFFFFFF10
02FFFFFFFFFA00
01FFFFFFFFF500
01FFFFFFFFF100
00FFFFFC8BE000
01FFDFFB000000
01FF7FFFFD1000
02FE5FFFFF0000
01FD9FFC770000
03FFFFFA430000
03FFFFFFFF4000
00FD8F7EED1000
00E75F1B560000
00731808050000
00200505030000
00002000000000
ENDCHAR
STARTCHAR Ccedilla
ENCODING 199
SWIDTH 504 0
DWIDTH 9 0
BBX 9 22 0 -8
BITMAP
0003552000
01AFFFE600
0CFFFFFF30
4FFFFFFF90
7FFFFFFF90
7FFFFFFF90
5FFFBEFF80
3FFF27FF70
0FFF237630
0DFF000000
0AFF047400
08FF2AFC00
02FFCFF900
00EFFFD200
00196C4000
0004360000
000005F200
000009B000
00000DDA30
0000047F50
0000036F40
00000BDE30
ENDCHAR
STARTCHAR Egrave
ENCODING 200
SWIDTH 570 0
DWIDTH 10 0
BBX 10 21 0 -1
BITMAP
0100000000
0A90000000
1EFB100000
BFFFD30000
026AEC0000
0000020000
0023432100
4FFFFFFFD5
0AFFFFFFF1
05FFFFFFD0
05FFFFFF80
04FFFFFF30
03FFD8BE00
01FFB00000
00FFFFD100
00DFFFF000
00CFC78000
00AFA44100
008FFFF500
0076EED200
0040A55000
ENDCHAR
STARTCHAR Eacute
ENCODING 201
SWIDTH 570 0
DWIDTH 10 0
BBX 12 21 0 -1
BITMAP
000000000100
000000006D00
00000008FF40
000001AFFFD2
000008FB7300
000001100000
002343210000
4FFFFFFFD500
0AFFFFFFF100
05FFFFFFD000
05FFFFFF8000
04FFFFFF3000
03FFD8BE0000
01FFB0000000
00FFFFD10000
00DFFFF00000
00CFC7800000
00AFA4410000
008FFFF50000
0076EED20000
0040A5500000
ENDCHAR
STARTCHAR Ecircumflex
ENCODING 202
SWIDTH 570 0
DWIDTH 10 0
BBX 10 22 0 -1
BITMAP
0008AA9000
002FFFF400
009FFFFB00
01EF88FF40
07FA00AFC0
0CB0001CC0
0110000110
0023432100
4FFFFFFFD5
0AFFFFFFF1
05FFFFFFD0
05FFFFFF80
04FFFFFF30
03FFD8BE00
01FFB00000
00FFFFD100
00DFFFF000
00CFC78000
00AFA44100
008FFFF500
0076EED200
0040A55000
ENDCHAR
STARTCHAR Edieresis
ENCODING 203
SWIDTH 570 0
DWIDTH 10 0
BBX 10 20 0 -1
BITMAP
1887218BC6
2FFF61FFF9
2FFF61FFF9
2FFF51FFF9
1788207763
0023432100
4FFFFFFFD5
0AFFFFFFF1
05FFFFFFD0
05FFFFFF80
04FFFFFF30
03FFD8BE00
01FFB00000
00FFFFD100
00DFFFF000
00CFC78000
00AFA44100
008FFFF500
0076EED200
0040A55000
ENDCHAR
STARTCHAR Igrave
ENCODING 204
SWIDTH 401 0
DWIDTH 7 0
BBX 9 21 -2 -1
BITMAP
0010000000
04D2000000
09FE400000
6EFFF70000
0149DF2000
0000020000
0015544420
006FFFFF60
0009FFFE10
0001EFFC00
0000DFFC00
0000FFFA00
0000FFF800
0000EFF500
0000DFF600
0000BFF500
00009FF300
00007FF300
00005FF200
00003AF200
0000137200
ENDCHAR
STARTCHAR Iacute
ENCODING 205
SWIDTH 401 0
DWIDTH 7 0
BBX 10 21 0 -1
BITMAP
0000000100
0000002D40
000004EF90
00006FFFE6
0002FD9400
0000200000
1554442000
6FFFFF6000
09FFFE1000
01EFFC0000
00DFFC0000
00FFFA0000
00FFF80000
00EFF50000
00DFF60000
00BFF50000
009FF30000
007FF30000
005FF20000
003AF20000
0013720000
ENDCHAR
STARTCHAR Icircumflex
ENCODING 206
SWIDTH 401 0
DWIDTH 7 0
BBX 9 22 -1 -1
BITMAP
004BAC2000
00CFFF9000
03FFFFF200
0AFC4FF900
2FE205FF20
6E30007E40
0200000200
0155444200
06FFFFF600
009FFFE100
001EFFC000
000DFFC000
000FFFA000
000FFF8000
000EFF5000
000DFF6000
000BFF5000
0009FF3000
0007FF3000
0005FF2000
0003AF2000
0001372000
ENDCHAR
STARTCHAR Idieresis
ENCODING 207
SWIDTH 401 0
DWIDTH 7 0
BBX 9 20 -1 -1
BITMAP
5975069CA0
BFFB0BFFE0
CFFB0BFFE0
CFFB0BFFF0
5895057660
0155444200
06FFFFF600
009FFFE100
001EFFC000
000DFFC000
000FFFA000
000FFF8000
000EFF5000
000DFF6000
000BFF5000
0009FF3000
0007FF3000
0005FF2000
0003AF2000
0001372000
ENDCHAR
STARTCHAR Eth
ENCODING 208
SWIDTH 530 0
DWIDTH 10 0
BBX 10 17 0 -3
BITMAP
0000024300
04ADFFFF40
07FFFFFFF4
01FFFFFFF9
00BFFFFFFC
008FFFFFFC
007FFEAFFB
005FF80EF8
3ABFFC5DF4
157FFA2DE0
001FF61FB0
000DF96F90
000BFFFF80
000BBCFE20
000A06B300
0004063000
0000030000
ENDCHAR
STARTCHAR Ntilde
ENCODING 209
SWIDTH 610 0
DWIDTH 11 0
BBX 11 22 0 -3
BITMAP
003100550000
07FB3AFF9000
08FFFFFFF300
00BFFB8E9000
000430010000
000130420000
4EFFF1BFEC30
1AFFF48FF900
06FFFA7FF300
05FFFE8FF200
04FFFFDFF000
02FFFFFFD000
01FFFFFFB000
00DFFFFF9000
00AFEFFF8000
007FBEFF7000
006FA9FF6000
005FB5FF6000
004FC1FF3000
003EA0CC1000
002440440000
000340200000
ENDCHAR
STARTCHAR Ograve
ENCODING 210
SWIDTH 504 0
DWIDTH 9 0
BBX 10 21 -1 -2
BITMAP
06B1000000
0BFD200000
8FFFE50000
0159DF0000
0000020000
0000232000
001AFFFB40
00CFFFFFE4
05FFFFFFF7
07FFFFFFF9
05FFFFFFF7
04FFF8FFF8
01FFC0CFF9
00EFA0AFF8
00CFB09FF5
00AFC0BFF0
006FF1DFC0
005FFCFF80
001CFFFF20
0000A2D700
0000105100
ENDCHAR
STARTCHAR Oacute
ENCODING 211
SWIDTH 504 0
DWIDTH 9 0
BBX 11 22 0 -2
BITMAP
000000001000
00000003E200
0000005FF700
000008FFFE40
00004FC84000
000002000000
000232000000
01AFFFB40000
0CFFFFFE4000
5FFFFFFF7000
7FFFFFFF9000
5FFFFFFF7000
4FFF8FFF8000
1FFC0CFF9000
0EFA0AFF8000
0CFB09FF5000
0AFC0BFF0000
06FF1DFC0000
05FFCFF80000
01CFFFF20000
000A2D700000
000105100000
ENDCHAR
STARTCHAR Ocircumflex
ENCODING 212
SWIDTH 504 0
DWIDTH 9 0
BBX 9 23 0 -2
BITMAP
006AAB1000
00DFFF7000
05FFFFE100
0CFB5FF700
4FC107FE10
8D20009E20
0100000100
0002320000
01AFFFB400
0CFFFFFE40
5FFFFFFF70
7FFFFFFF90
5FFFFFFF70
4FFF8FFF80
1FFC0CFF90
0EFA0AFF80
0CFB09FF50
0AFC0BFF00
06FF1DFC00
05FFCFF800
01CFFFF200
000A2D7000
0001051000
ENDCHAR
STARTCHAR Otilde
ENCODING 213
SWIDTH 504 0
DWIDTH 9 0
BBX 9 21 0 -2
BITMAP
0300164000
9F93BFF700
BFFFFFFF10
1DFFA9F700
0052001000
0002320000
01AFFFB400
0CFFFFFE40
5FFFFFFF70
7FFFFFFF90
5FFFFFFF70
4FFF8FFF80
1FFC0CFF90
0EFA0AFF80
0CFB09FF50
0AFC0BFF00
06FF1DFC00
05FFCFF800
01CFFFF200
000A2D7000
0001051000
ENDCHAR
STARTCHAR Odieresis
ENCODING 214
SWIDTH 504 0
DWIDTH 9 0
BBX 9 21 0 -2
BITMAP
797407AC80
DFF90DFFC0
EFF90DFFC0
EFF80DFFD0
6894067650
0002320000
01AFFFB400
0CFFFFFE40
5FFFFFFF70
7FFFFFFF90
5FFFFFFF70
4FFF8FFF80
1FFC0CFF90
0EFA0AFF80
0CFB09FF50
0AFC0BFF00
06FF1DFC00
05FFCFF800
01CFFFF200
000A2D7000
0001051000
ENDCHAR
STARTCHAR multiply
ENCODING 215
SWIDTH 359 0
DWIDTH 6 0
BBX 7 8 0 3
BITMAP
00001000
09A1D500
8FFDFF20
2DFFF900
08FFF400
6FFFFE20
2EE7FC10
04305100
ENDCHAR
STARTCHAR Oslash
ENCODING 216
SWIDTH 658 0
DWIDTH 12 0
BBX 13 16 -1 -2
BITMAP
00000321000000
0004DFFFB30000
004FFFFFFD2380
00CFFFFFFF7A00
00EFFFFFFFC000
00CFFFFFFF5000
00AFFD9FFF6000
008FF52FFF6000
006FF4BEFF5000
004FFD3DFF3000
002FF61EFD0000
000EFA3FFA0000
008EFFCFF60000
0835EFFFE10000
24003A5C700000
00000223100000
ENDCHAR
STARTCHAR Ugrave
ENCODING 217
SWIDTH 637 0
DWIDTH 11 0
BBX 11 21 0 -1
BITMAP
001000000000
01D500000000
05FF70000000
3DFFFA100000
0038CF600000
000001100000
013441110000
4EFFF04FFC70
09FFF06FFF30
07FFE06FFE00
05FFF26FFB00
03FFF27FF800
01FFF28FF400
00EFE08FF200
00DFD0AFF100
00DFF0BFE000
00CFF2CFC000
008FF7EFA000
005FFFFF6000
001CE6B91000
000321410000
ENDCHAR
STARTCHAR Uacute
ENCODING 218
SWIDTH 637 0
DWIDTH 11 0
BBX 12 21 0 -1
BITMAP
000000000010
000000001A80
00000001CFD1
0000004DFFFA
000000DEA610
000000200000
013441110000
4EFFF04FFC70
09FFF06FFF30
07FFE06FFE00
05FFF26FFB00
03FFF27FF800
01FFF28FF400
00EFE08FF200
00DFD0AFF100
00DFF0BFE000
00CFF2CFC000
008FF7EFA000
005FFFFF6000
001CE6B91000
000321410000
ENDCHAR
STARTCHAR Ucircumflex
ENCODING 219
SWIDTH 637 0
DWIDTH 11 0
BBX 11 22 0 -1
BITMAP
0001BAB50000
0008FFFD0000
000EFFFF6000
006FE4DFD000
00CF502EF600
02F60003E700
002000002000
013441110000
4EFFF04FFC70
09FFF06FFF30
07FFE06FFE00
05FFF26FFB00
03FFF27FF800
01FFF28FF400
00EFE08FF200
00DFD0AFF100
00DFF0BFE000
00CFF2CFC000
008FF7EFA000
005FFFFF6000
001CE6B91000
000321410000
ENDCHAR
STARTCHAR Udieresis
ENCODING 220
SWIDTH 637 0
DWIDTH 11 0
BBX 11 20 0 -1
BITMAP
03977049CB20
07FFF07FFF30
08FFF06FFF30
07FFF06FFF40
038980286610
013441110000
4EFFF04FFC70
09FFF06FFF30
07FFE06FFE00
05FFF26FFB00
03FFF27FF800
01FFF28FF400
00EFE08FF200
00DFD0AFF100
00DFF0BFE000
00CFF2CFC000
008FF7EFA000
005FFFFF6000
001CE6B91000
000321410000
ENDCHAR
STARTCHAR Yacute
ENCODING 221
SWIDTH 688 0
DWIDTH 12 0
BBX 13 21 0 -1
BITMAP
00000000001000
0000000004E200
000000005FF700
00000008FFFE40
0000005FC84000
00000012000000
00234001300000
4DFFF606FDA510
019FFE19FFF920
000AFF9FFF7000
0001CFFFF90000
00006FFFF20000
00000EFFF00000
000009FFD00000
000004FFC00000
000000FFB00000
000000DFA00000
000000BF900000
000000AF800000
0000008F700000
00000056200000
ENDCHAR
STARTCHAR Thorn
ENCODING 222
SWIDTH 521 0
DWIDTH 9 0
BBX 9 20 0 -3
BITMAP
1445520000
AFFFF10000
8FFFD00000
6FFFC32100
4FFFFFFE30
2FFFFFFFA0
1FFFFFFFC0
0FFFFFFFC0
0DFFFFFFB0
0BFFC4DF90
09FFB09F80
06FFC09F50
03FFFDEF10
01FFFFFA00
00DFD12000
00EFD00000
00CFD00000
0096C00000
0062600000
0011100000
ENDCHAR
STARTCHAR germandbls
ENCODING 223
SWIDTH 546 0
DWIDTH 10 0
BBX 10 16 0 -2
BITMAP
0000111000
04CFFFFE70
0EFFFFFFF2
3FFFFFFFF4
4FFFFFFFF4
6FFFFFFFF4
4FFFAAFFD0
2FFF42FF80
0EFF57FF20
0CFF5FFB00
0AFF4FFC00
08FF35FF10
07FF45FE00
03FF6DFB00
02BB5EF500
0000013000
ENDCHAR
STARTCHAR agrave
ENCODING 224
SWIDTH 479 0
DWIDTH 9 0
BBX 10 22 -1 -2
BITMAP
0010000000
03D3000000
08FE500000
5EFFF80000
0048CF4000
0000020000
0024565564
06FFFFFFD1
006FFFFF70
002FFFFF40
001FFFFF40
002FFFFF30
001FFFFF20
000EFEFF20
001FF9FF30
003FF4FF30
004FF1FF40
003FFCFF30
005FFFFF10
003FF3EF00
003FA0CE00
0018301200
ENDCHAR
STARTCHAR aacute
ENCODING 225
SWIDTH 479 0
DWIDTH 9 0
BBX 11 22 0 -2
BITMAP
000000001000
00000002C600
0000003DFB00
000005EFFF70
00001FD95100
000002000000
024565564000
6FFFFFFD1000
06FFFFF70000
02FFFFF40000
01FFFFF40000
02FFFFF30000
01FFFFF20000
00EFEFF20000
01FF9FF30000
03FF4FF30000
04FF1FF40000
03FFCFF30000
05FFFFF10000
03FF3EF00000
03FA0CE00000
018301200000
ENDCHAR
STARTCHAR acircumflex
ENCODING 226
SWIDTH 479 0
DWIDTH 9 0
BBX 9 23 0 -2
BITMAP
003BAB3000
00AFFFB000
02FFFFF300
08FD3EFB00
1EE304FF40
5F40005F50
0200000200
0245655640
6FFFFFFD10
06FFFFF700
02FFFFF400
01FFFFF400
02FFFFF300
01FFFFF200
00EFEFF200
01FF9FF300
03FF4FF300
04FF1FF400
03FFCFF300
05FFFFF100
03FF3EF000
03FA0CE000
0183012000
ENDCHAR
STARTCHAR atilde
ENCODING 227
SWIDTH 479 0
DWIDTH 9 0
BBX 9 21 0 -2
BITMAP
0310056000
6FC29FFA00
7FFFFFFF40
0AFFB8EA00
0043001000
0245655640
6FFFFFFD10
06FFFFF700
02FFFFF400
01FFFFF400
02FFFFF300
01FFFFF200
00EFEFF200
01FF9FF300
03FF4FF300
04FF1FF400
03FFCFF300
05FFFFF100
03FF3EF000
03FA0CE000
0183012000
ENDCHAR
STARTCHAR adieresis
ENCODING 228
SWIDTH 479 0
DWIDTH 9 0
BBX 10 21 0 -2
BITMAP
5976059CA0
AFFC09FFF0
AFFC09FFF1
AFFC09FFF1
5896047660
0245655640
6FFFFFFD10
06FFFFF700
02FFFFF400
01FFFFF400
02FFFFF300
01FFFFF200
00EFEFF200
01FF9FF300
03FF4FF300
04FF1FF400
03FFCFF300
05FFFFF100
03FF3EF000
03FA0CE000
0183012000
ENDCHAR
STARTCHAR aring
ENCODING 229
SWIDTH 479 0
DWIDTH 9 0
BBX 9 22 0 -2
BITMAP
0001430000
004EFF7000
00AC4AF100
008A04D100
005FBE6000
0015B80000
0245655640
6FFFFFFD10
06FFFFF700
02FFFFF400
01FFFFF400
02FFFFF300
01FFFFF200
00EFEFF200
01FF9FF300
03FF4FF300
04FF1FF400
03FFCFF300
05FFFFF100
03FF3EF000
03FA0CE000
0183012000
ENDCHAR
STARTCHAR ae
ENCODING 230
SWIDTH 755 0
DWIDTH 14 0
BBX 13 16 0 -2
BITMAP
02456566531000
5FFFFFFFFFFEA0
05FFFFFFFFFF60
01FFFFFFFFFD00
00EFFFFFFFF900
01EFFFFFFFF800
00FFFFFEBDF600
00DFEFFF003100
00EF9FFF883000
01FF4FFFFF5000
02FF2EFFEE3000
01FFCFFF010000
03FFFFFFBB6000
01FF3EFFFF7000
02FB0CD4866000
00840120001000
ENDCHAR
STARTCHAR ccedilla
ENCODING 231
SWIDTH 534 0
DWIDTH 10 0
BBX 10 21 0 -7
BITMAP
0002563000
009FFFFA10
0BFFFFFFB0
4FFFFFFFF3
7FFFFFFFF2
7FFFFFFFF2
4FFFECFFF1
1FFF61FFE0
0CFF709BA0
0BFF500000
08FF606300
04FF94FF10
01EFDBFE00
009FFFF700
00268A9000
00000CA000
00001F4000
00005FA800
000025CC00
000014BC00
00004DEB00
ENDCHAR
STARTCHAR egrave
ENCODING 232
SWIDTH 632 0
DWIDTH 11 0
BBX 11 22 0 -2
BITMAP
001000000000
03D300000000
08FE40000000
5EFFF7000000
0048CF300000
000002000000
000133321000
4BEFFFFFFD70
1DFFFFFFFF20
06FFFFFFFA00
03FFFFFFF600
01FFFFFFF400
00DFFDCEF200
00BFF8004000
008FFB881000
005FFFFF2000
004FFFEF1000
002FF8010000
000EFCCB4000
000CFFFF4000
000718783000
000000011000
ENDCHAR
STARTCHAR eacute
ENCODING 233
SWIDTH 632 0
DWIDTH 11 0
BBX 12 22 0 -2
BITMAP
000000000100
000000002C50
00000003DFA0
0000006EFFF7
000001FD9510
000000200000
000133321000
4BEFFFFFFD70
1DFFFFFFFF20
06FFFFFFFA00
03FFFFFFF600
01FFFFFFF400
00DFFDCEF200
00BFF8004000
008FFB881000
005FFFFF2000
004FFFEF1000
002FF8010000
000EFCCB4000
000CFFFF4000
000718783000
000000011000
ENDCHAR
STARTCHAR ecircumflex
ENCODING 234
SWIDTH 632 0
DWIDTH 11 0
BBX 11 23 0 -2
BITMAP
0004BAC30000
000BFFFA0000
002FFFFF3000
009FD4EFA000
01EE204FF300
05F40006F400
002000002000
000133321000
4BEFFFFFFD70
1DFFFFFFFF20
06FFFFFFFA00
03FFFFFFF600
01FFFFFFF400
00DFFDCEF200
00BFF8004000
008FFB881000
005FFFFF2000
004FFFEF1000
002FF8010000
000EFCCB4000
000CFFFF4000
000718783000
000000011000
ENDCHAR
STARTCHAR edieresis
ENCODING 235
SWIDTH 632 0
DWIDTH 11 0
BBX 11 21 0 -2
BITMAP
05976059CA00
0AFFC0AFFF00
0BFFC0AFFE10
0AFFC09FFF10
058960476600
000133321000
4BEFFFFFFD70
1DFFFFFFFF20
06FFFFFFFA00
03FFFFFFF600
01FFFFFFF400
00DFFDCEF200
00BFF8004000
008FFB881000
005FFFFF2000
004FFFEF1000
002FF8010000
000EFCCB4000
000CFFFF4000
000718783000
000000011000
ENDCHAR
STARTCHAR igrave
ENCODING 236
SWIDTH 411 0
DWIDTH 7 0
BBX 9 21 -2 -1
BITMAP
0010000000
03D3000000
08FE500000
5EFFF80000
0048CF4000
0000020000
0002444200
005FFFFFA0
0008FFFF30
0000DFFD00
0000CFFC00
0000DFF800
0000DFF600
0000CFF500
0000AFF500
00008FF400
00005FF200
00004FF100
00003FF000
00002DE000
0000016000
ENDCHAR
STARTCHAR iacute
ENCODING 237
SWIDTH 411 0
DWIDTH 7 0
BBX 10 21 0 -1
BITMAP
0000000100
0000001C60
000003DFB0
00005EFFF7
0001FD9510
0000200000
0244420000
5FFFFFA000
08FFFF3000
00DFFD0000
00CFFC0000
00DFF80000
00DFF60000
00CFF50000
00AFF50000
008FF40000
005FF20000
004FF10000
003FF00000
002DE00000
0001600000
ENDCHAR
STARTCHAR icircumflex
ENCODING 238
SWIDTH 411 0
DWIDTH 7 0
BBX 8 22 0 -1
BITMAP
009AA900
03FFFF30
0AFFFFA0
2FF79FF3
8F900BFB
DB0001CB
11000010
02444200
5FFFFFA0
08FFFF30
00DFFD00
00CFFC00
00DFF800
00DFF600
00CFF500
00AFF500
008FF400
005FF200
004FF100
003FF000
002DE000
00016000
ENDCHAR
STARTCHAR idieresis
ENCODING 239
SWIDTH 411 0
DWIDTH 7 0
BBX 10 20 -1 -1
BITMAP
5976059CA0
AFFD09FFF1
AFFD09FFF1
AFFC09FFF1
4896047660
0024442000
05FFFFFA00
008FFFF300
000DFFD000
000CFFC000
000DFF8000
000DFF6000
000CFF5000
000AFF5000
0008FF4000
0005FF2000
0004FF1000
0003FF0000
0002DE0000
0000160000
ENDCHAR
STARTCHAR eth
ENCODING 240
SWIDTH 530 0
DWIDTH 10 0
BBX 10 17 0 -3
BITMAP
0000024300
04ADFFFF40
07FFFFFFF4
01FFFFFFF9
00BFFFFFFC
008FFFFFFC
007FFEAFFB
005FF80EF8
3ABFFC5DF4
157FFA2DE0
001FF61FB0
000DF96F90
000BFFFF80
000BBCFE20
000A06B300
0004063000
0000030000
ENDCHAR
STARTCHAR ntilde
ENCODING 241
SWIDTH 664 0
DWIDTH 12 0
BBX 12 21 0 -2
BITMAP
000300172000
01CF55DFE300
02EFFFFFFC00
004FFE8BE400
000151001000
123453131111
6FFFF90FFFF6
0CFFFD0BFFC0
08FFFF4BFF60
07FFFF7DFF20
06FFFFCFFF00
05FFFFFFFD00
03FFFFFFFB00
01FFFFFFF900
00DFDFFFF600
00BFBCFFF400
00AFA8FFF100
008FA5FFD000
006F91FF7000
005C60EC4000
000000241000
ENDCHAR
STARTCHAR ograve
ENCODING 242
SWIDTH 545 0
DWIDTH 10 0
BBX 11 22 -1 -2
BITMAP
001000000000
01D400000000
05FF70000000
3DFFF9100000
0038CF600000
000001100000
000024320000
001AFFFFA100
00BFFFFFFA00
05FFFFFFFF50
07FFFFFFFF50
05FFFFFFFF60
03FFFACFFF60
01FFF17FFF50
00EFF05FFF20
00CFF04FFD00
009FF16FF900
005FF59FF400
001FFDEFF100
0009DFFF9000
000022B93000
000000111000
ENDCHAR
STARTCHAR oacute
ENCODING 243
SWIDTH 545 0
DWIDTH 10 0
BBX 11 22 0 -2
BITMAP
000000000100
00000001A800
0000001CFD10
000004DFFF90
00000DEA6100
000002000000
000243200000
01AFFFFA1000
0BFFFFFFA000
5FFFFFFFF500
7FFFFFFFF500
5FFFFFFFF600
3FFFACFFF600
1FFF17FFF500
0EFF05FFF200
0CFF04FFD000
09FF16FF9000
05FF59FF4000
01FFDEFF1000
009DFFF90000
00022B930000
000001110000
ENDCHAR
STARTCHAR ocircumflex
ENCODING 244
SWIDTH 545 0
DWIDTH 10 0
BBX 10 23 0 -2
BITMAP
001BAB5000
008FFFD000
01EFFFF600
06FE4DFD00
0DF402EF60
3F60004F70
0200000200
0002432000
01AFFFFA10
0BFFFFFFA0
5FFFFFFFF5
7FFFFFFFF5
5FFFFFFFF6
3FFFACFFF6
1FFF17FFF5
0EFF05FFF2
0CFF04FFD0
09FF16FF90
05FF59FF40
01FFDEFF10
009DFFF900
00022B9300
0000011100
ENDCHAR
STARTCHAR otilde
ENCODING 245
SWIDTH 545 0
DWIDTH 10 0
BBX 10 21 0 -2
BITMAP
0220037100
4ED38EFC10
5FFFFFFF70
08FFC7DC10
0034001000
0002432000
01AFFFFA10
0BFFFFFFA0
5FFFFFFFF5
7FFFFFFFF5
5FFFFFFFF6
3FFFACFFF6
1FFF17FFF5
0EFF05FFF2
0CFF04FFD0
09FF16FF90
05FF59FF40
01FFDEFF10
009DFFF900
00022B9300
0000011100
ENDCHAR
STARTCHAR odieresis
ENCODING 246
SWIDTH 545 0
DWIDTH 10 0
BBX 10 21 0 -2
BITMAP
3977049CB2
7FFF07FFF3
8FFF07FFF3
8FFF07FFF4
3898038661
0002432000
01AFFFFA10
0BFFFFFFA0
5FFFFFFFF5
7FFFFFFFF5
5FFFFFFFF6
3FFFACFFF6
1FFF17FFF5
0EFF05FFF2
0CFF04FFD0
09FF16FF90
05FF59FF40
01FFDEFF10
009DFFF900
00022B9300
0000011100
ENDCHAR
STARTCHAR oslash
ENCODING 248
SWIDTH 676 0
DWIDTH 12 0
BBX 12 16 0 -2
BITMAP
000133300000
008FFFFA1026
07FFFFFFA2A1
1FFFFFFFFB00
3FFFFFFFF400
1FFFFFFFF500
0EFFBBFFF400
0CFF3AFFF400
0AFF99FFF100
07FF72FFD000
04FF15FF9000
04FF59FF5000
38DFDEFF1000
807CFFF90000
00023B940000
000001110000
ENDCHAR
STARTCHAR ugrave
ENCODING 249
SWIDTH 708 0
DWIDTH 13 0
BBX 13 21 0 -1
BITMAP
00010000000000
005C2000000000
00AFD300000000
07FFFE60000000
00159DF1000000
00000020000000
00034300000000
3CFFFB05FCB610
08FFFA07FFFE40
05FFFA07FFF800
01FFFD06FFF300
00DFFE06FFD000
00BFFE07FFA000
008FFC08FF7000
007FFB0BFF6000
006FFD0AFF5000
002FFF1DFF2000
000CFF6FFE0000
0009FFFFFA0000
0003AC5CB40000
00000001000000
ENDCHAR
STARTCHAR uacute
ENCODING 250
SWIDTH 708 0
DWIDTH 13 0
BBX 13 21 0 -1
BITMAP
00000000001000
0000000003D300
000000005EF800
00000007FFFE50
0000004FC84000
00000002000000
00034300000000
3CFFFB05FCB610
08FFFA07FFFE40
05FFFA07FFF800
01FFFD06FFF300
00DFFE06FFD000
00BFFE07FFA000
008FFC08FF7000
007FFB0BFF6000
006FFD0AFF5000
002FFF1DFF2000
000CFF6FFE0000
0009FFFFFA0000
0003AC5CB40000
00000001000000
ENDCHAR
STARTCHAR ucircumflex
ENCODING 251
SWIDTH 708 0
DWIDTH 13 0
BBX 13 22 0 -1
BITMAP
00005AAC100000
0000DFFF800000
0005FFFFE10000
000BFB4FF80000
003FD106FE1000
008E20008E3000
00020000020000
00034300000000
3CFFFB05FCB610
08FFFA07FFFE40
05FFFA07FFF800
01FFFD06FFF300
00DFFE06FFD000
00BFFE07FFA000
008FFC08FF7000
007FFB0BFF6000
006FFD0AFF5000
002FFF1DFF2000
000CFF6FFE0000
0009FFFFFA0000
0003AC5CB40000
00000001000000
ENDCHAR
STARTCHAR udieresis
ENCODING 252
SWIDTH 708 0
DWIDTH 13 0
BBX 13 20 0 -1
BITMAP
00697407AC9000
00DFFA0CFFD000
00DFFA0CFFD000
00DFF90CFFD000
00689505765000
00034300000000
3CFFFB05FCB610
08FFFA07FFFE40
05FFFA07FFF800
01FFFD06FFF300
00DFFE06FFD000
00BFFE07FFA000
008FFC08FF7000
007FFB0BFF6000
006FFD0AFF5000
002FFF1DFF2000
000CFF6FFE0000
0009FFFFFA0000
0003AC5CB40000
00000001000000
ENDCHAR
STARTCHAR yacute
ENCODING 253
SWIDTH 604 0
DWIDTH 11 0
BBX 12 22 0 -2
BITMAP
000000000100
000000003D30
00000004EF80
0000007FFFE5
000003FD8400
000000200000
002310110000
2DFFA07EB820
02CFF2BFF800
001FF9FFA000
0008FFFE1000
0003FFF90000
0000EFF80000
0000BFF60000
00008FF50000
00005FF40000
00003FF20000
00004FF30000
00004FF10000
00004FD00000
00002C800000
000001000000
ENDCHAR
STARTCHAR thorn
ENCODING 254
SWIDTH 498 0
DWIDTH 9 0
BBX 9 20 0 -3
BITMAP
1445600000
AFFFC00000
8FFF900000
6FFF932000
4FFFFFFB00
2FFFFFFF40
1FFFFFFF60
0FFFFFFF60
0DFFFFFF50
0BFF97FF40
09FF71FF30
06FF80FF10
03FFEDFC00
01FFFFF600
00DFC12000
00EFC00000
00CFD00000
0096B00000
0062600000
0011100000
ENDCHAR
STARTCHAR ydieresis
ENCODING 255
SWIDTH 604 0
DWIDTH 11 0
BBX 11 21 0 -2
BITMAP
02887128BB40
05FFF34FFF60
05FFF34FFF60
05FFF24FFF60
028881276620
002310110000
2DFFA07EB820
02CFF2BFF800
001FF9FFA000
0008FFFE1000
0003FFF90000
0000EFF80000
0000BFF60000
00008FF50000
00005FF40000
00003FF20000
00004FF30000
00004FF10000
00004FD00000
00002C800000
000001000000
ENDCHAR
STARTCHAR Amacron
ENCODING 256
SWIDTH 494 0
DWIDTH 9 0
BBX 9 21 0 -4
BITMAP
0465555200
0AFFFFF600
05ACAAB400
0000000000
3CEFFEDA20
03FFFFF600
01FFFFF000
00FFFFD000
02FFFFC000
01FFFFB000
01FFDFA000
01FF7FA000
02FE5FA000
01FD8F9000
03FFFFA000
03FFFF7000
00FD7F4000
00E84F3000
0073280000
0010060000
0000200000
ENDCHAR
STARTCHAR amacron
ENCODING 257
SWIDTH 479 0
DWIDTH 9 0
BBX 9 19 0 -2
BITMAP
0366555400
07FFFFF800
049CAAA600
0245655640
6FFFFFFD10
06FFFFF700
02FFFFF400
01FFFFF400
02FFFFF300
01FFFFF200
00EFEFF200
01FF9FF300
03FF4FF300
04FF1FF400
03FFCFF300
05FFFFF100
03FF3EF000
03FA0CE000
0183012000
ENDCHAR
STARTCHAR Abreve
ENCODING 258
SWIDTH 494 0
DWIDTH 9 0
BBX 9 24 0 -4
BITMAP
02CC003530
00EF20AF80
00BFDAFF40
005BFFFC00
000057A600
0000000200
0000000000
3CEFFEDA20
03FFFFF600
01FFFFF000
00FFFFD000
02FFFFC000
01FFFFB000
01FFDFA000
01FF7FA000
02FE5FA000
01FD8F9000
03FFFFA000
03FFFF7000
00FD7F4000
00E84F3000
0073280000
0010060000
0000200000
ENDCHAR
STARTCHAR abreve
ENCODING 259
SWIDTH 479 0
DWIDTH 9 0
BBX 9 22 0 -2
BITMAP
02CC003530
00EF20AF80
00BFDAFF40
005BFFFC00
000057A600
0000000200
0245655640
6FFFFFFD10
06FFFFF700
02FFFFF400
01FFFFF400
02FFFFF300
01FFFFF200
00EFEFF200
01FF9FF300
03FF4FF300
04FF1FF400
03FFCFF300
05FFFFF100
03FF3EF000
03FA0CE000
0183012000
ENDCHAR
STARTCHAR Aogonek
ENCODING 260
SWIDTH 494 0
DWIDTH 9 0
BBX 9 21 0 -8
BITMAP
3CEFFEDA20
03FFFFF600
01FFFFF000
00FFFFD000
02FFFFC000
01FFFFB000
01FFDFA000
01FF7FA000
02FE5FA000
01FD8F9000
03FFFFA000
03FFFF7000
00FD7F4000
00E86F3000
0073CF1000
0011FD0000
0002FC0000
0002FF2000
0000EFEB60
00007FFF70
0000037830
ENDCHAR
STARTCHAR aogonek
ENCODING 261
SWIDTH 479 0
DWIDTH 9 0
BBX 10 21 0 -7
BITMAP
0245655640
6FFFFFFD10
06FFFFF700
02FFFFF400
01FFFFF400
02FFFFF300
01FFFFF200
00EFEFF200
01FF9FF300
03FF4FF300
04FF1FF400
03FFCFF300
05FFFFF100
03FF3EF000
03FA0DE000
01831FC000
00002FA000
00002FC100
00000EFEC4
000006FFF4
0000002661
ENDCHAR
STARTCHAR Cacute
ENCODING 262
SWIDTH 504 0
DWIDTH 9 0
BBX 10 22 0 -2
BITMAP
0000000100
0000001C60
000003DFB0
00005EFFF7
0001FD9510
0000200000
0003552000
01AFFFE600
0CFFFFFF30
4FFFFFFF90
7FFFFFFF90
7FFFFFFF90
5FFFBEFF80
3FFF27FF70
0FFF237630
0DFF000000
0AFF047400
08FF2AFC00
02FFCFF900
00EFFFD200
00196C4000
0004360000
ENDCHAR
STARTCHAR cacute
ENCODING 263
SWIDTH 534 0
DWIDTH 10 0
BBX 10 21 0 -1
BITMAP
0000000010
00000008B0
000001AFE2
00002CFFFB
0000BEB620
0000210000
0002563000
009FFFFA10
0BFFFFFFB0
4FFFFFFFF3
7FFFFFFFF2
7FFFFFFFF2
4FFFECFFF1
1FFF61FFE0
0CFF709BA0
0BFF500000
08FF606300
04FF94FF10
01EFDBFE00
009FFFF700
00268A9000
ENDCHAR
STARTCHAR Ccircumflex
ENCODING 264
SWIDTH 504 0
DWIDTH 9 0
BBX 9 23 0 -2
BITMAP
000AAB7000
005FFFE100
00CFFFF800
04FF5BFE10
0AF701DF80
1E80002E90
0200000100
0003552000
01AFFFE600
0CFFFFFF30
4FFFFFFF90
7FFFFFFF90
7FFFFFFF90
5FFFBEFF80
3FFF27FF70
0FFF237630
0DFF000000
0AFF047400
08FF2AFC00
02FFCFF900
00EFFFD200
00196C4000
0004360000
ENDCHAR
STARTCHAR ccircumflex
ENCODING 265
SWIDTH 534 0
DWIDTH 10 0
BBX 10 22 0 -1
BITMAP
0005BAC100
000CFFF900
004FFFFF20
00BFC4FF90
02FD106FF2
07E20007E3
0020000020
0002563000
009FFFFA10
0BFFFFFFB0
4FFFFFFFF3
7FFFFFFFF2
7FFFFFFFF2
4FFFECFFF1
1FFF61FFE0
0CFF709BA0
0BFF500000
08FF606300
04FF94FF10
01EFDBFE00
009FFFF700
00268A9000
ENDCHAR
STARTCHAR Cdotaccent
ENCODING 266
SWIDTH 504 0
DWIDTH 9 0
BBX 9 23 0 -2
BITMAP
0046898100
008FFFF200
006FFFF100
005FFFF300
004FFFF200
003DB9A100
0000000000
0003552000
01AFFFE600
0CFFFFFF30
4FFFFFFF90
7FFFFFFF90
7FFFFFFF90
5FFFBEFF80
3FFF27FF70
0FFF237630
0DFF000000
0AFF047400
08FF2AFC00
02FFCFF900
00EFFFD200
00196C4000
0004360000
ENDCHAR
STARTCHAR cdotaccent
ENCODING 267
SWIDTH 534 0
DWIDTH 10 0
BBX 10 22 0 -1
BITMAP
0026799300
003FFFF700
001FFFF700
000FFFF800
000EFFF700
000BC9A400
0000000000
0002563000
009FFFFA10
0BFFFFFFB0
4FFFFFFFF3
7FFFFFFFF2
7FFFFFFFF2
4FFFECFFF1
1FFF61FFE0
0CFF709BA0
0BFF500000
08FF606300
04FF94FF10
01EFDBFE00
009FFFF700
00268A9000
ENDCHAR
STARTCHAR Ccaron
ENCODING 268
SWIDTH 504 0
DWIDTH 9 0
BBX 9 24 0 -2
BITMAP
0000000100
2BA0006D20
2FF602EF80
0AFD1BFE10
04FFCFF800
00CFFFE100
005FFF8000
0003231000
0003552000
01AFFFE600
0CFFFFFF30
4FFFFFFF90
7FFFFFFF90
7FFFFFFF90
5FFFBEFF80
3FFF27FF70
0FFF237630
0DFF000000
0AFF047400
08FF2AFC00
02FFCFF900
00EFFFD200
00196C4000
0004360000
ENDCHAR
STARTCHAR ccaron
ENCODING 269
SWIDTH 534 0
DWIDTH 10 0
BBX 10 23 0 -1
BITMAP
0010000000
05E5000B90
08FE107FF2
01FF82EFA0
009FFCFF30
003FFFFA00
000BFFF200
0001223000
0002563000
009FFFFA10
0BFFFFFFB0
4FFFFFFFF3
7FFFFFFFF2
7FFFFFFFF2
4FFFECFFF1
1FFF61FFE0
0CFF709BA0
0BFF500000
08FF606300
04FF94FF10
01EFDBFE00
009FFFF700
00268A9000
ENDCHAR
STARTCHAR Dcaron
ENCODING 270
SWIDTH 522 0
DWIDTH 9 0
BBX 10 24 0 -3
BITMAP
03D80008B1
04FF404FF6
00DFC0DFD0
006FFCFF60
000EFFFD00
0008FFF500
0001324000
0000012000
2ABDFFF900
2FFFFFFF90
0BFFFFFFE0
07FFFFFFF1
04FFFFFFF0
03FFF9FFD0
02FFC09FA0
00FFA08F70
00DFA08F40
00BFA0BF10
009FD3EF00
007FFEFD00
008CAFF700
00734E5000
0041380000
0000120000
ENDCHAR
STARTCHAR dcaron
ENCODING 271
SWIDTH 522 0
DWIDTH 9 0
BBX 10 24 0 -3
BITMAP
03D80008B1
04FF404FF6
00DFC0DFD0
006FFCFF60
000EFFFD00
0008FFF500
0001324000
0000012000
2ABDFFF900
2FFFFFFF90
0BFFFFFFE0
07FFFFFFF1
04FFFFFFF0
03FFF9FFD0
02FFC09FA0
00FFA08F70
00DFA08F40
00BFA0BF10
009FD3EF00
007FFEFD00
008CAFF700
00734E5000
0041380000
0000120000
ENDCHAR
STARTCHAR Eth.dup2
ENCODING 272
SWIDTH 530 0
DWIDTH 10 0
BBX 10 17 0 -3
BITMAP
0000024300
04ADFFFF40
07FFFFFFF4
01FFFFFFF9
00BFFFFFFC
008FFFFFFC
007FFEAFFB
005FF80EF8
3ABFFC5DF4
157FFA2DE0
001FF61FB0
000DF96F90
000BFFFF80
000BBCFE20
000A06B300
0004063000
0000030000
ENDCHAR
STARTCHAR Emacron
ENCODING 274
SWIDTH 570 0
DWIDTH 10 0
BBX 10 18 0 -1
BITMAP
0066554610
00EFFFFF10
007BBAAC00
0023432100
4FFFFFFFD5
0AFFFFFFF1
05FFFFFFD0
05FFFFFF80
04FFFFFF30
03FFD8BE00
01FFB00000
00FFFFD100
00DFFFF000
00CFC78000
00AFA44100
008FFFF500
0076EED200
0040A55000
ENDCHAR
STARTCHAR emacron
ENCODING 275
SWIDTH 632 0
DWIDTH 11 0
BBX 11 19 0 -2
BITMAP
003665553000
008FFFFF8000
0049CAAA5000
000133321000
4BEFFFFFFD70
1DFFFFFFFF20
06FFFFFFFA00
03FFFFFFF600
01FFFFFFF400
00DFFDCEF200
00BFF8004000
008FFB881000
005FFFFF2000
004FFFEF1000
002FF8010000
000EFCCB4000
000CFFFF4000
000718783000
000000011000
ENDCHAR
STARTCHAR Ebreve
ENCODING 276
SWIDTH 570 0
DWIDTH 10 0
BBX 10 21 0 -1
BITMAP
006C800541
004FC01EF3
001FFCCFE0
0008DFFF70
000033BA20
0000001100
0023432100
4FFFFFFFD5
0AFFFFFFF1
05FFFFFFD0
05FFFFFF80
04FFFFFF30
03FFD8BE00
01FFB00000
00FFFFD100
00DFFFF000
00CFC78000
00AFA44100
008FFFF500
0076EED200
0040A55000
ENDCHAR
STARTCHAR ebreve
ENCODING 277
SWIDTH 632 0
DWIDTH 11 0
BBX 11 22 0 -2
BITMAP
0007C7005410
0006FA02FF20
0002FFBCFC00
00009DFFF500
0000042CA000
000000012000
000133321000
4BEFFFFFFD70
1DFFFFFFFF20
06FFFFFFFA00
03FFFFFFF600
01FFFFFFF400
00DFFDCEF200
00BFF8004000
008FFB881000
005FFFFF2000
004FFFEF1000
002FF8010000
000EFCCB4000
000CFFFF4000
000718783000
000000011000
ENDCHAR
STARTCHAR Edotaccent
ENCODING 278
SWIDTH 570 0
DWIDTH 10 0
BBX 10 21 0 -1
BITMAP
0026798300
005FFFF600
003FFFF500
001FFFF700
000FFFF600
000DB9A300
0023432100
4FFFFFFFD5
0AFFFFFFF1
05FFFFFFD0
05FFFFFF80
04FFFFFF30
03FFD8BE00
01FFB00000
00FFFFD100
00DFFFF000
00CFC78000
00AFA44100
008FFFF500
0076EED200
0040A55000
ENDCHAR
STARTCHAR edotaccent
ENCODING 279
SWIDTH 632 0
DWIDTH 11 0
BBX 11 22 0 -2
BITMAP
001569960000
000DFFFC0000
000BFFFC0000
000AFFFD0000
0009FFFC0000
0007CA980000
000133321000
4BEFFFFFFD70
1DFFFFFFFF20
06FFFFFFFA00
03FFFFFFF600
01FFFFFFF400
00DFFDCEF200
00BFF8004000
008FFB881000
005FFFFF2000
004FFFEF1000
002FF8010000
000EFCCB4000
000CFFFF4000
000718783000
000000011000
ENDCHAR
STARTCHAR Eogonek
ENCODING 280
SWIDTH 513 0
DWIDTH 9 0
BBX 10 20 0 -6
BITMAP
0023432100
4FFFFFFFD5
0AFFFFFFF1
05FFFFFFD0
05FFFFFF80
04FFFFFF30
03FFD8BE00
01FFB00000
00FFFFD100
00DFFFF000
00CFC78000
00AFA44100
008FFFF500
007EDFF200
00424FE100
00007F4000
00008F6000
00006FE761
00001EFFF1
0000029CC0
ENDCHAR
STARTCHAR eogonek
ENCODING 281
SWIDTH 632 0
DWIDTH 11 0
BBX 11 20 0 -6
BITMAP
000133321000
4BEFFFFFFD70
1DFFFFFFFF20
06FFFFFFFA00
03FFFFFFF600
01FFFFFFF400
00DFFDCEF200
00BFF8004000
008FFB881000
005FFFFF2000
004FFFEF1000
002FF8010000
000EFCCB4000
000CFFFF3000
00071AF90000
000007F50000
000008F60000
000007FE6510
000002EFFF10
0000003ADD00
ENDCHAR
STARTCHAR Ecaron
ENCODING 282
SWIDTH 570 0
DWIDTH 10 0
BBX 10 22 0 -1
BITMAP
03D80008B1
04FF404FF5
00DFB1DFD0
006FFCFF60
001EFFFD00
0008FFF500
0001324000
0023432100
4FFFFFFFD5
0AFFFFFFF1
05FFFFFFD0
05FFFFFF80
04FFFFFF30
03FFD8BE00
01FFB00000
00FFFFD100
00DFFFF000
00CFC78000
00AFA44100
008FFFF500
0076EED200
0040A55000
ENDCHAR
STARTCHAR ecaron
ENCODING 283
SWIDTH 632 0
DWIDTH 11 0
BBX 11 24 0 -2
BITMAP
000100000000
004E6000AA00
006FF206FF40
001EF91EFB00
0008FFCFF400
0002FFFFB000
0000AFFF3000
000013230000
000133321000
4BEFFFFFFD70
1DFFFFFFFF20
06FFFFFFFA00
03FFFFFFF600
01FFFFFFF400
00DFFDCEF200
00BFF8004000
008FFB881000
005FFFFF2000
004FFFEF1000
002FF8010000
000EFCCB4000
000CFFFF4000
000718783000
000000011000
ENDCHAR
STARTCHAR Gcircumflex
ENCODING 284
SWIDTH 499 0
DWIDTH 9 0
BBX 9 23 0 -2
BITMAP
005AAC1000
00CFFF8000
04FFFFE100
0BFC4FF900
2FD106FF20
7E20008E30
0200000200
0002210000
02BFFF9100
1FFFFFFD10
4FFFFFFF60
6FFFFFFF90
4FFFFFFF80
2FFE9FFF50
0FFB0CFF30
0DF9059A30
0BF94AA910
09FC4FFF30
07FE27FF20
04FFADFF10
00DFFFFB00
003A8CC200
0006112000
ENDCHAR
STARTCHAR gcircumflex
ENCODING 285
SWIDTH 546 0
DWIDTH 10 0
BBX 10 23 0 -2
BITMAP
001BAB6000
007FFFD000
00DFFFF600
05FF4CFD00
0CF502EF70
2F70003E80
0200000200
0002220000
01DFFFE910
2EFFFFFFB0
5FFFFFFFF3
7FFFFFFFF7
5FFFFFFFF7
3FFFBEFFF5
0FFF25FFF1
0DFF11BEF0
09FF176310
05FF5BFFD0
03FF78DFB0
01FFD3CFB0
00BFFFFFA0
002EEFEF50
0002331200
ENDCHAR
STARTCHAR Gbreve
ENCODING 286
SWIDTH 499 0
DWIDTH 9 0
BBX 9 22 0 -2
BITMAP
07C6006410
06FA02FF10
03FFBCFC00
009DFFF500
00042DA000
0000012000
0002210000
02BFFF9100
1FFFFFFD10
4FFFFFFF60
6FFFFFFF90
4FFFFFFF80
2FFE9FFF50
0FFB0CFF30
0DF9059A30
0BF94AA910
09FC4FFF30
07FE27FF20
04FFADFF10
00DFFFFB00
003A8CC200
0006112000
ENDCHAR
STARTCHAR gbreve
ENCODING 287
SWIDTH 546 0
DWIDTH 10 0
BBX 10 22 0 -2
BITMAP
02CB003530
00EF10BF80
00BFDAFF30
005BFFFC00
0000579600
0000000200
0002220000
01DFFFE910
2EFFFFFFB0
5FFFFFFFF3
7FFFFFFFF7
5FFFFFFFF7
3FFFBEFFF5
0FFF25FFF1
0DFF11BEF0
09FF176310
05FF5BFFD0
03FF78DFB0
01FFD3CFB0
00BFFFFFA0
002EEFEF50
0002331200
ENDCHAR
STARTCHAR Gdotaccent
ENCODING 288
SWIDTH 499 0
DWIDTH 9 0
BBX 9 22 0 -2
BITMAP
0156995000
01EFFFA000
00DFFFA000
00CFFFB000
00AFFFA000
009C996000
0002210000
02BFFF9100
1FFFFFFD10
4FFFFFFF60
6FFFFFFF90
4FFFFFFF80
2FFE9FFF50
0FFB0CFF30
0DF9059A30
0BF94AA910
09FC4FFF30
07FE27FF20
04FFADFF10
00DFFFFB00
003A8CC200
0006112000
ENDCHAR
STARTCHAR gdotaccent
ENCODING 289
SWIDTH 546 0
DWIDTH 10 0
BBX 10 22 0 -2
BITMAP
0046898000
009FFFF100
007FFFF100
006FFFF200
005FFFF100
004DA9A000
0002220000
01DFFFE910
2EFFFFFFB0
5FFFFFFFF3
7FFFFFFFF7
5FFFFFFFF7
3FFFBEFFF5
0FFF25FFF1
0DFF11BEF0
09FF176310
05FF5BFFD0
03FF78DFB0
01FFD3CFB0
00BFFFFFA0
002EEFEF50
0002331200
ENDCHAR
STARTCHAR Gcommaaccent
ENCODING 290
SWIDTH 499 0
DWIDTH 9 0
BBX 9 25 0 -11
BITMAP
0002210000
02BFFF9100
1FFFFFFD10
4FFFFFFF60
6FFFFFFF90
4FFFFFFF80
2FFE9FFF50
0FFB0CFF30
0DF9059A30
0BF94AA910
09FC4FFF30
07FE27FF20
04FFADFF10
00DFFFFB00
003A8CC200
0006112000
0001200000
000FFEF200
000FFFF300
001FFFF400
002FFFF300
00044CF300
00000CF000
00000ED000
00000A7000
ENDCHAR
STARTCHAR Hcircumflex
ENCODING 292
SWIDTH 726 0
DWIDTH 13 0
BBX 13 25 0 -4
BITMAP
00006AAB100000
0000DFFF700000
0006FFFFE10000
000CFB5FF70000
004FC107FE1000
008D20009E2000
00010000010000
00002302221000
38AEFB0AFFFD40
0AFFF605FFFD00
06FFF607FFF600
04FFF609FFF100
01FFF509FFD000
00DFF509FFA000
00AFF51BFF5000
008FFFFFFF2000
006FFFFFFF0000
004FF83FFE0000
002FF71FFA0000
001FF72FF80000
001FF74FF60000
0018310CB50000
00000001110000
00000040000000
00000030000000
ENDCHAR
STARTCHAR hcircumflex
ENCODING 293
SWIDTH 730 0
DWIDTH 13 0
BBX 13 22 0 -1
BITMAP
00005AAC100000
0000CFFF800000
0004FFFFE10000
000BFC4FF90000
002FD106FF2000
007E20008E3000
00020000020000
00014604553200
3ADFFA08FFFF60
08FFF803FFFD00
05FFF805FFF700
03FFF707FFF200
01FFF707FFF000
00CFF607FFB000
009FF83AFF7000
006FFFFFFF3000
004FFFFFFF2000
004FF80EFF0000
003FF80FFC0000
001FF80FFA0000
000FF82EF80000
0016100A860000
ENDCHAR
STARTCHAR hbar
ENCODING 295
SWIDTH 704 0
DWIDTH 13 0
BBX 13 15 0 -1
BITMAP
00024506543000
3ADFF80EFFFD10
08FFF40DFFF700
05FFFDCFFFF100
03FFFFFFFFA000
01FFFFFFFF8000
00CFF76DFF4000
009FF53DFE0000
006FFFFFFB0000
004FFFFFFB0000
004FF80EFD0000
003FF80FFC0000
001FF80FFA0000
000FF82EF80000
0016100A860000
ENDCHAR
STARTCHAR Itilde
ENCODING 296
SWIDTH 401 0
DWIDTH 7 0
BBX 9 20 -1 -1
BITMAP
0300055000
7FA3AFF900
9FFFFFFF30
0CFFA8E900
0043001000
0155444200
06FFFFF600
009FFFE100
001EFFC000
000DFFC000
000FFFA000
000FFF8000
000EFF5000
000DFF6000
000BFF5000
0009FF3000
0007FF3000
0005FF2000
0003AF2000
0001372000
ENDCHAR
STARTCHAR itilde
ENCODING 297
SWIDTH 411 0
DWIDTH 7 0
BBX 9 20 -1 -1
BITMAP
0310056000
6FC29FFA00
7FFFFFFF40
0AFFB8EA00
0043001000
0024442000
05FFFFFA00
008FFFF300
000DFFD000
000CFFC000
000DFF8000
000DFF6000
000CFF5000
000AFF5000
0008FF4000
0005FF2000
0004FF1000
0003FF0000
0002DE0000
0000160000
ENDCHAR
STARTCHAR Imacron
ENCODING 298
SWIDTH 401 0
DWIDTH 7 0
BBX 7 18 0 -1
BITMAP
36655530
9FFFFF70
59CAAB50
15544420
6FFFFF60
09FFFE10
01EFFC00
00DFFC00
00FFFA00
00FFF800
00EFF500
00DFF600
00BFF500
009FF300
007FF300
005FF200
003AF200
00137200
ENDCHAR
STARTCHAR imacron
ENCODING 299
SWIDTH 411 0
DWIDTH 7 0
BBX 7 18 0 -1
BITMAP
36655540
7FFFFF80
49CAAA60
02444200
5FFFFFA0
08FFFF30
00DFFD00
00CFFC00
00DFF800
00DFF600
00CFF500
00AFF500
008FF400
005FF200
004FF100
003FF000
002DE000
00016000
ENDCHAR
STARTCHAR Ibreve
ENCODING 300
SWIDTH 401 0
DWIDTH 7 0
BBX 8 21 0 -1
BITMAP
5C900552
3FD00EF4
0FFCBFE1
08CFFF80
0023B920
00001110
15544420
6FFFFF60
09FFFE10
01EFFC00
00DFFC00
00FFFA00
00FFF800
00EFF500
00DFF600
00BFF500
009FF300
007FF300
005FF200
003AF200
00137200
ENDCHAR
STARTCHAR ibreve
ENCODING 301
SWIDTH 411 0
DWIDTH 7 0
BBX 8 21 0 -1
BITMAP
6C800541
4FC01EF3
1FFCCFE0
08DFFF70
0033BA20
00001100
02444200
5FFFFFA0
08FFFF30
00DFFD00
00CFFC00
00DFF800
00DFF600
00CFF500
00AFF500
008FF400
005FF200
004FF100
003FF000
002DE000
00016000
ENDCHAR
STARTCHAR Iogonek
ENCODING 302
SWIDTH 401 0
DWIDTH 7 0
BBX 7 21 0 -7
BITMAP
15544420
6FFFFF60
09FFFE10
01EFFC00
00DFFC00
00FFFA00
00FFF800
00EFF500
00DFF600
00BFF500
009FF300
007FF300
005FF200
004FF200
006F9200
009F2000
00CE0000
00EE0000
00DFA430
009FFFA0
0018DF80
ENDCHAR
STARTCHAR iogonek
ENCODING 303
SWIDTH 412 0
DWIDTH 7 0
BBX 7 21 0 -7
BITMAP
02444200
5FFFFF90
08FFFF30
00DFFD00
00CFFC00
00DFF800
00DFF600
00CFF500
00AFF500
008FF500
005FF200
004FF100
003FF000
004FE000
007FA000
00AF3000
00DF0000
00DF3000
00BFEA70
004FFFB0
00038A60
ENDCHAR
STARTCHAR Idotaccent
ENCODING 304
SWIDTH 401 0
DWIDTH 7 0
BBX 7 21 0 -1
BITMAP
15699500
0EFFFB00
0CFFFB00
0BFFFC00
0AFFFB00
08C99700
15544420
6FFFFF60
09FFFE10
01EFFC00
00DFFC00
00FFFA00
00FFF800
00EFF500
00DFF600
00BFF500
009FF300
007FF300
005FF200
003AF200
00137200
ENDCHAR
STARTCHAR dotlessi
ENCODING 305
SWIDTH 411 0
DWIDTH 7 0
BBX 7 15 0 -1
BITMAP
02444200
5FFFFFA0
08FFFF30
00DFFD00
00CFFC00
00DFF800
00DFF600
00CFF500
00AFF500
008FF400
005FF200
004FF100
003FF000
002DE000
00016000
ENDCHAR
STARTCHAR IJ
ENCODING 306
SWIDTH 908 0
DWIDTH 16 0
BBX 16 15 0 -1
BITMAP
1554443000022200
6FFFFFA0001FFFF6
09FFFF400009FFF1
01EFFF100006FFD0
00DFFF100006FF70
00FFFE000008FF60
00FFFC000009FF50
00EFF9000009FF20
00CFFA000007FF00
00AFF9002519FD00
009FF703FF29FC00
006FF701FF3CF900
004FF600EFEFF600
002BE6006ECFE100
0004720000372000
ENDCHAR
STARTCHAR ij
ENCODING 307
SWIDTH 901 0
DWIDTH 16 0
BBX 16 15 0 -1
BITMAP
0244430000344100
5FFFFFC000AFFFC5
08FFFF60003FFFF2
00DFFF20000FFFD0
00CFFF10000BFF90
00DFFC00000BFF90
00DFFA00000BFF80
00CFF900000BFF70
00AFF9000008FF60
007FF9003519FF30
005FF602FF38FF30
003FF500DF89FF10
002FF400BFFFFC00
001DE3003DFFF800
0001520000255400
ENDCHAR
STARTCHAR Jcircumflex
ENCODING 308
SWIDTH 455 0
DWIDTH 8 0
BBX 10 22 -1 -1
BITMAP
00009AA900
0003FFFF30
000AFFFFA0
002FF79FF3
008F900BFB
00DB0001CB
0011000010
0000222000
0002FFFF50
0000BFFF00
00007FFC00
00007FF600
00009FF400
0000AFF400
0000AFF100
00009FE000
0361AFB000
5FF1AFA000
2FF2DF8000
1FFEFF4000
07EBFD0000
0012720000
ENDCHAR
STARTCHAR jcircumflex
ENCODING 309
SWIDTH 458 0
DWIDTH 8 0
BBX 10 22 -1 -1
BITMAP
00009AA900
0003FFFF30
000AFFFFB0
001FF79FF3
008F900BFB
00CB0001CC
0011000011
0002441000
0008FFFD50
0002FFFF30
0000EFFE00
0000AFFA00
0000AFFA00
0000AFFA00
0000AFF800
00007FF700
03527FF500
4FF47FF400
1EF98FF200
0CFFFFE000
03DFFF9000
0001454000
ENDCHAR
STARTCHAR Kcommaaccent
ENCODING 310
SWIDTH 580 0
DWIDTH 10 0
BBX 10 24 0 -10
BITMAP
0241202200
6FFFE0CFE9
09FFE0EFC1
02FFF3FC10
00CFF9F800
009FFFF400
008FFFF300
007FFFF500
004FFFF500
002FFFF600
001FFFF700
000EE7FB00
000DD0EE00
000BF1BF20
0004315510
0000210000
0004FFEC00
0005FFFE00
0006FFFE00
0006FFFE00
000144FD00
000001FB00
000004F800
0000039400
ENDCHAR
STARTCHAR kcommaaccent
ENCODING 311
SWIDTH 636 0
DWIDTH 11 0
BBX 11 24 0 -10
BITMAP
000113124300
5CFFE84FFF80
09FFF68FF700
03FFF6BF8000
00BFF8DF3000
005FF9EF1000
004FFBF90000
003FFEF40000
002FFFF30000
000DFFF70000
000BFFFC0000
0009F9DF2000
0008F66F8000
0006F71FD000
000133075000
000012000000
0000BFFF6000
0000CFFF7000
0000DFFF7000
0000DFFF7000
0000339F6000
0000008F4000
000000BF2000
000000890000
ENDCHAR
STARTCHAR kgreenlandic
ENCODING 312
SWIDTH 636 0
DWIDTH 11 0
BBX 11 15 0 -1
BITMAP
000113124300
5CFFE84FFF80
09FFF68FF700
03FFF6BF8000
00BFF8DF3000
005FF9EF1000
004FFBF90000
003FFEF40000
002FFFF30000
000DFFF70000
000BFFFC0000
0009F9DF2000
0008F66F8000
0006F71FD000
000133075000
ENDCHAR
STARTCHAR Lacute
ENCODING 313
SWIDTH 416 0
DWIDTH 8 0
BBX 10 22 0 -2
BITMAP
0000000100
0000001C60
000003DFB0
00005EFFF7
0001FD9510
0000200000
3443241000
4FFFFA1000
0CFFE20000
0AFFD00000
08FFE00000
08FFD00000
06FFB00000
02FFD00000
02FFD00000
01EFD00000
00DFD00000
00CFF75610
00AFFFFD00
006FFEFA00
001586A600
0000102000
ENDCHAR
STARTCHAR lacute
ENCODING 314
SWIDTH 438 0
DWIDTH 8 0
BBX 10 22 0 -2
BITMAP
0000000010
00000009A0
000001BFE2
00003CFFFB
0000BEA620
0000200000
0034456200
3DFFFF5000
07FFFA0000
05FFF70000
03FFF70000
01FFF50000
01EFF60000
009FF50000
007FF40000
007FF30000
005FF40000
004FFB7630
002FFFFF10
000FFCFD00
000922A900
0001001000
ENDCHAR
STARTCHAR Lcommaaccent
ENCODING 315
SWIDTH 416 0
DWIDTH 8 0
BBX 9 25 0 -11
BITMAP
3443241000
4FFFFA1000
0CFFE20000
0AFFD00000
08FFE00000
08FFD00000
06FFB00000
02FFD00000
02FFD00000
01EFD00000
00DFD00000
00CFF75610
00AFFFFD00
006FFEFA00
001586A600
0000102000
0012000000
00DFFF4000
00DFFF5000
00EFFF6000
00FFFF5000
0043AF5000
0000AF2000
0000CF0000
0000880000
ENDCHAR
STARTCHAR lcommaaccent
ENCODING 316
SWIDTH 438 0
DWIDTH 8 0
BBX 9 25 0 -11
BITMAP
0034456200
3DFFFF5000
07FFFA0000
05FFF70000
03FFF70000
01FFF50000
01EFF60000
009FF50000
007FF40000
007FF30000
005FF40000
004FFB7630
002FFFFF10
000FFCFD00
000922A900
0001001000
0002000000
008FFF8000
009FFFA000
00AFFFA000
00AFFFA000
00237F9000
00005F7000
00008F4000
0000691000
ENDCHAR
STARTCHAR Lcaron
ENCODING 317
SWIDTH 714 0
DWIDTH 13 0
BBX 13 16 0 -2
BITMAP
24432410210000
4FFFFB16FFEF10
0BFFE207FFFF20
0AFFD007FFFF30
07FFE008FFFF20
07FFD008FFFF20
06FFB00123CF10
02FFD00000DE00
02FFD00001FC00
01EFD000019600
00DFD000000000
00CFF756100000
00AFFFFD000000
006FFEFA000000
001586A7000000
00001020000000
ENDCHAR
STARTCHAR lcaron
ENCODING 318
SWIDTH 782 0
DWIDTH 14 0
BBX 14 16 0 -2
BITMAP
00344562021000
3DFFFF503FFEF5
07FFFA003FFFF6
05FFF7004FFFF6
03FFF7004FFFF6
01FFF5005FFFF6
01EFF6000229F5
009FF500000AF2
007FF400000DF0
007FF300000880
005FF400000000
004FFB76300000
002FFFFF100000
000FFCFD000000
000922A9000000
00010010000000
ENDCHAR
STARTCHAR Ldotaccent
ENCODING 319
SWIDTH 567 0
DWIDTH 10 0
BBX 12 16 0 -2
BITMAP
344324100000
4FFFFA100000
0CFFE2000000
0AFFD0569A80
08FFE0AFFFF0
08FFD08FFFE0
06FFB07FFFF1
02FFD06FFFF0
02FFD05CA990
01EFD0000000
00DFD0000000
00CFF7561000
00AFFFFD0000
006FFEFA0000
001586A60000
000010200000
ENDCHAR
STARTCHAR ldot
ENCODING 320
SWIDTH 660 0
DWIDTH 12 0
BBX 13 16 0 -2
BITMAP
00344562000000
3DFFFF50000000
07FFFA00000000
05FFF700000000
03FFF703679820
01FFF505FFFF50
01EFF603FFFF50
009FF502FFFF60
007FF401FFFF50
007FF300DB9A30
005FF400000000
004FFB76300000
002FFFFF100000
000FFCFD000000
000922A9000000
00010010000000
ENDCHAR
STARTCHAR Lslash
ENCODING 321
SWIDTH 428 0
DWIDTH 8 0
BBX 9 16 0 -2
BITMAP
1444241000
2DFFFA1000
08FFE20000
06FFD00000
03FFE06900
03FFEEFC00
18FFFFFF20
BFFFFFFB30
6FFFF82000
1DEFD00000
009FD00000
008FF75600
006FFFFD00
003FFEFA00
000586A600
0000002000
ENDCHAR
STARTCHAR lslash
ENCODING 322
SWIDTH 457 0
DWIDTH 8 0
BBX 10 16 0 -2
BITMAP
0024356300
2CFFFF8000
05FFFD0000
03FFFA0010
00FFFA6D60
00EFFFFF90
04EFFFFFE1
7FFFFFFA40
3FFFFB2000
0CEFF60000
013FF60000
001FFC7640
000EFFFF40
000DFCFF10
0009218B00
0001000100
ENDCHAR
STARTCHAR Nacute
ENCODING 323
SWIDTH 610 0
DWIDTH 11 0
BBX 12 23 0 -3
BITMAP
000000000100
000000002D50
00000003EFA0
0000006EFFE6
000002FD9410
000000200000
000130420000
4EFFF1BFEC30
1AFFF48FF900
06FFFA7FF300
05FFFE8FF200
04FFFFDFF000
02FFFFFFD000
01FFFFFFB000
00DFFFFF9000
00AFEFFF8000
007FBEFF7000
006FA9FF6000
005FB5FF6000
004FC1FF3000
003EA0CC1000
002440440000
000340200000
ENDCHAR
STARTCHAR nacute
ENCODING 324
SWIDTH 664 0
DWIDTH 12 0
BBX 13 22 0 -2
BITMAP
00000000001000
0000000006D000
000000008FF300
0000001BFFFC20
0000008FB72000
00000011000000
12345313111100
6FFFF90FFFF600
0CFFFD0BFFC000
08FFFF4BFF6000
07FFFF7DFF2000
06FFFFCFFF0000
05FFFFFFFD0000
03FFFFFFFB0000
01FFFFFFF90000
00DFDFFFF60000
00BFBCFFF40000
00AFA8FFF10000
008FA5FFD00000
006F91FF700000
005C60EC400000
00000024100000
ENDCHAR
STARTCHAR Ncommaaccent
ENCODING 325
SWIDTH 610 0
DWIDTH 11 0
BBX 11 26 0 -12
BITMAP
000130420000
4EFFF1BFEC30
1AFFF48FF900
06FFFA7FF300
05FFFE8FF200
04FFFFDFF000
02FFFFFFD000
01FFFFFFB000
00DFFFFF9000
00AFEFFF8000
007FBEFF7000
006FA9FF6000
005FB5FF6000
004FC1FF3000
003EA0CC1000
002440440000
000340200000
000012000000
0000CFFF5000
0000CFFF6000
0000DFFF7000
0000EFFF6000
000033AF6000
0000009F3000
000000BF1000
000000890000
ENDCHAR
STARTCHAR ncommaaccent
ENCODING 326
SWIDTH 664 0
DWIDTH 12 0
BBX 12 25 0 -11
BITMAP
123453131111
6FFFF90FFFF6
0CFFFD0BFFC0
08FFFF4BFF60
07FFFF7DFF20
06FFFFCFFF00
05FFFFFFFD00
03FFFFFFFB00
01FFFFFFF900
00DFDFFFF600
00BFBCFFF400
00AFA8FFF100
008FA5FFD000
006F91FF7000
005C60EC4000
000000241000
000002100000
00005FFEC000
00005FFFD000
00006FFFE000
00007FFFD000
0000144FD000
0000002FA000
0000004F8000
000000394000
ENDCHAR
STARTCHAR Ncaron
ENCODING 327
SWIDTH 610 0
DWIDTH 11 0
BBX 11 25 0 -3
BITMAP
000000001000
01BB0005D200
02FF702EF900
00AFE1AFF200
003FFCFF9000
000BFFFF2000
0004FFF80000
000032310000
000130420000
4EFFF1BFEC30
1AFFF48FF900
06FFFA7FF300
05FFFE8FF200
04FFFFDFF000
02FFFFFFD000
01FFFFFFB000
00DFFFFF9000
00AFEFFF8000
007FBEFF7000
006FA9FF6000
005FB5FF6000
004FC1FF3000
003EA0CC1000
002440440000
000340200000
ENDCHAR
STARTCHAR ncaron
ENCODING 328
SWIDTH 664 0
DWIDTH 12 0
BBX 12 24 0 -2
BITMAP
000100000000
003D70009B00
005FF305FF50
000DFB1DFD00
0007FFCFF500
0001EFFFC000
00008FFF5000
000013240000
123453131111
6FFFF90FFFF6
0CFFFD0BFFC0
08FFFF4BFF60
07FFFF7DFF20
06FFFFCFFF00
05FFFFFFFD00
03FFFFFFFB00
01FFFFFFF900
00DFDFFFF600
00BFBCFFF400
00AFA8FFF100
008FA5FFD000
006F91FF7000
005C60EC4000
000000241000
ENDCHAR
STARTCHAR Omacron
ENCODING 332
SWIDTH 504 0
DWIDTH 9 0
BBX 9 19 0 -2
BITMAP
0465555200
0BFFFFF500
06ACAAB300
0002320000
01AFFFB400
0CFFFFFE40
5FFFFFFF70
7FFFFFFF90
5FFFFFFF70
4FFF8FFF80
1FFC0CFF90
0EFA0AFF80
0CFB09FF50
0AFC0BFF00
06FF1DFC00
05FFCFF800
01CFFFF200
000A2D7000
0001051000
ENDCHAR
STARTCHAR omacron
ENCODING 333
SWIDTH 545 0
DWIDTH 10 0
BBX 10 19 0 -2
BITMAP
0266455500
05FFFFFB00
028CABA800
0002432000
01AFFFFA10
0BFFFFFFA0
5FFFFFFFF5
7FFFFFFFF5
5FFFFFFFF6
3FFFACFFF6
1FFF17FFF5
0EFF05FFF2
0CFF04FFD0
09FF16FF90
05FF59FF40
01FFDEFF10
009DFFF900
00022B9300
0000011100
ENDCHAR
STARTCHAR Obreve
ENCODING 334
SWIDTH 504 0
DWIDTH 9 0
BBX 9 22 0 -2
BITMAP
06C8005510
03FC01EF40
01FFCCFE00
008CFFF800
00023BA200
0000011100
0002320000
01AFFFB400
0CFFFFFE40
5FFFFFFF70
7FFFFFFF90
5FFFFFFF70
4FFF8FFF80
1FFC0CFF90
0EFA0AFF80
0CFB09FF50
0AFC0BFF00
06FF1DFC00
05FFCFF800
01CFFFF200
000A2D7000
0001051000
ENDCHAR
STARTCHAR obreve
ENCODING 335
SWIDTH 545 0
DWIDTH 10 0
BBX 10 22 0 -2
BITMAP
04CA004520
01FE10CF60
00DFDBFF20
006CFFFA00
0001499400
0000010100
0002432000
01AFFFFA10
0BFFFFFFA0
5FFFFFFFF5
7FFFFFFFF5
5FFFFFFFF6
3FFFACFFF6
1FFF17FFF5
0EFF05FFF2
0CFF04FFD0
09FF16FF90
05FF59FF40
01FFDEFF10
009DFFF900
00022B9300
0000011100
ENDCHAR
STARTCHAR Ohungarumlaut
ENCODING 336
SWIDTH 504 0
DWIDTH 9 0
BBX 10 23 0 -2
BITMAP
0053005300
00DF50DDA2
04FF93FFB0
0AFA09FB10
2FC11EC100
7D104D1000
0100010000
0002320000
01AFFFB400
0CFFFFFE40
5FFFFFFF70
7FFFFFFF90
5FFFFFFF70
4FFF8FFF80
1FFC0CFF90
0EFA0AFF80
0CFB09FF50
0AFC0BFF00
06FF1DFC00
05FFCFF800
01CFFFF200
000A2D7000
0001051000
ENDCHAR
STARTCHAR ohungarumlaut
ENCODING 337
SWIDTH 545 0
DWIDTH 10 0
BBX 10 23 0 -2
BITMAP
0017001600
007FA07FB6
00DFD1CFE3
04FE23FE30
0BF409F400
1F500D5000
0100010000
0002432000
01AFFFFA10
0BFFFFFFA0
5FFFFFFFF5
7FFFFFFFF5
5FFFFFFFF6
3FFFACFFF6
1FFF17FFF5
0EFF05FFF2
0CFF04FFD0
09FF16FF90
05FF59FF40
01FFDEFF10
009DFFF900
00022B9300
0000011100
ENDCHAR
STARTCHAR OE
ENCODING 338
SWIDTH 789 0
DWIDTH 14 0
BBX 14 17 0 -3
BITMAP
00023223432100
01AFFFFFFFFFD5
0CFFFFFFFFFFE1
5FFFFFFFFFFF90
7FFFFFFFFFFF40
5FFFFFFFFFFF10
4FFF8FFFC8BE00
1FFC0CFFB00000
0EFA0AFFFFD100
0DFB09FFFFF000
0BFC0BFFC77000
07FF1DFFA43000
05FFCFFFFFF400
01CFFFF7EED100
000B2D80B56000
00060A30805000
00010200403000
ENDCHAR
STARTCHAR oe
ENCODING 339
SWIDTH 778 0
DWIDTH 14 0
BBX 14 16 0 -2
BITMAP
00024311221000
01BFFFFFFFFEC3
0CFFFFFFFFFFB0
5FFFFFFFFFFF40
7FFFFFFFFFFE00
5FFFFFFFFFFD00
2FFF9EFFFEFB00
0EFE09FFC02300
0BFD07FFD75000
09FD06FFFFB000
06FD09FFFF9000
04FF2CFF501000
02FFDFFFBBA000
009DFFFFFFD000
00041DA2978000
00000120001000
ENDCHAR
STARTCHAR Racute
ENCODING 340
SWIDTH 599 0
DWIDTH 11 0
BBX 12 22 0 -2
BITMAP
000000000100
000000004E20
00000006FF60
0000018FFFE4
000005FC8300
000001200000
000244220000
5CEFFFFFA200
0BFFFFFFFD20
01FFFFFFFF50
00BFFFFFFF50
00AFFFFFFF50
009FF94EFF30
007FF70CFF20
004FFC7FFD00
001FFFFFF800
000CFEEFD000
000CF97FF200
000AFA5FF300
0009FB3FF300
00039409C600
000010000000
ENDCHAR
STARTCHAR racute
ENCODING 341
SWIDTH 616 0
DWIDTH 11 0
BBX 12 22 0 -2
BITMAP
000000000100
000000002D50
00000003EFA0
0000006EFFE6
000002FD9410
000000200000
000144210000
4BEFFFFFB500
0BFFFFFFFF70
01EFFFFFFFB0
00BFFFFFFF90
009FFFFFFF70
008FFC4EFF40
006FF90BFF10
006FFD6EFE00
003FFFFFF900
001FFFFFD200
001FF99FB000
000FF98FB000
000FF87FC000
000C834DD000
000000004000
ENDCHAR
STARTCHAR Rcommaaccent
ENCODING 342
SWIDTH 599 0
DWIDTH 11 0
BBX 11 25 0 -11
BITMAP
000244220000
5CEFFFFFA200
0BFFFFFFFD20
01FFFFFFFF50
00BFFFFFFF50
00AFFFFFFF50
009FF94EFF30
007FF70CFF20
004FFC7FFD00
001FFFFFF800
000CFEEFD000
000CF97FF200
000AFA5FF300
0009FB3FF300
00039409C600
000010000000
000021000000
0002FFEE0000
0003FFFF1000
0004FFFF1000
0004FFFF1000
000144DF0000
000000ED0000
000002FA0000
000002950000
ENDCHAR
STARTCHAR rcommaaccent
ENCODING 343
SWIDTH 616 0
DWIDTH 11 0
BBX 11 25 0 -11
BITMAP
000144210000
4BEFFFFFB500
0BFFFFFFFF70
01EFFFFFFFB0
00BFFFFFFF90
009FFFFFFF70
008FFC4EFF40
006FF90BFF10
006FFD6EFE00
003FFFFFF900
001FFFFFD200
001FF99FB000
000FF98FB000
000FF87FC000
000C834DD000
000000004000
000012000000
0000EFEF3000
0000EFFF4000
0000FFFF5000
0000FFFF4000
000043BF4000
000000BF1000
000000DE0000
000000970000
ENDCHAR
STARTCHAR Rcaron
ENCODING 344
SWIDTH 599 0
DWIDTH 11 0
BBX 11 24 0 -2
BITMAP
000100001000
007E3001D600
00AFD00AFE00
004FF54FF800
000CFEDFE100
0005FFFF7000
0000DFFE1000
000022230000
000244220000
5CEFFFFFA200
0BFFFFFFFD20
01FFFFFFFF50
00BFFFFFFF50
00AFFFFFFF50
009FF94EFF30
007FF70CFF20
004FFC7FFD00
001FFFFFF800
000CFEEFD000
000CF97FF200
000AFA5FF300
0009FB3FF300
00039409C600
000010000000
ENDCHAR
STARTCHAR rcaron
ENCODING 345
SWIDTH 616 0
DWIDTH 11 0
BBX 11 24 0 -2
BITMAP
000100001000
008E2002D500
00CFC00BFD00
005FF45FF600
000DFDEFD000
0006FFFF6000
0001EFFD0000
000022320000
000144210000
4BEFFFFFB500
0BFFFFFFFF70
01EFFFFFFFB0
00BFFFFFFF90
009FFFFFFF70
008FFC4EFF40
006FF90BFF10
006FFD6EFE00
003FFFFFF900
001FFFFFD200
001FF99FB000
000FF98FB000
000FF87FC000
000C834DD000
000000004000
ENDCHAR
STARTCHAR Sacute
ENCODING 346
SWIDTH 504 0
DWIDTH 9 0
BBX 11 22 0 -2
BITMAP
000000001000
00000004E200
0000005FF700
000008FFFE40
00005FC84000
000012000000
000024000000
007DFFD50000
09FFFFFF6000
1EFFFFFFA000
6FFFFFFF9000
8FFFFFFF8000
8FFF8EFF7000
6FFF279A7000
2FFFEC500000
05EFFFF70000
0016AFFE0000
09CB1BFE0000
0BFFAFFA0000
04FFFFF20000
006867700000
000001000000
ENDCHAR
STARTCHAR sacute
ENCODING 347
SWIDTH 481 0
DWIDTH 9 0
BBX 11 21 0 -1
BITMAP
000000001000
00000005D100
0000007FF500
00001AFFFD30
00007FC73000
000011000000
000242000000
009FFFC20000
09FFFFFD1000
2FFFFFFF4000
7FFFFFFF2000
7FFFFFFF0000
7FFF9FFE0000
6FFE1BDD0000
1FFFC9130000
08FFFFA00000
004AEFF20000
04772FF30000
0AFF7FF10000
03FFFF800000
009DAA200000
ENDCHAR
STARTCHAR Scircumflex
ENCODING 348
SWIDTH 504 0
DWIDTH 9 0
BBX 9 23 0 -2
BITMAP
0009AA9000
002FFFF300
009FFFFB00
01FF78FF40
07FA00BFB0
0CB0001CC0
0110000110
0000240000
007DFFD500
09FFFFFF60
1EFFFFFFA0
6FFFFFFF90
8FFFFFFF80
8FFF8EFF70
6FFF279A70
2FFFEC5000
05EFFFF700
0016AFFE00
09CB1BFE00
0BFFAFFA00
04FFFFF200
0068677000
0000010000
ENDCHAR
STARTCHAR scircumflex
ENCODING 349
SWIDTH 481 0
DWIDTH 9 0
BBX 9 22 0 -1
BITMAP
001BAB6000
007FFFE100
00DFFFF700
05FF4CFE10
0CF502DF70
2F70003E80
0200000200
0002420000
009FFFC200
09FFFFFD10
2FFFFFFF40
7FFFFFFF20
7FFFFFFF00
7FFF9FFE00
6FFE1BDD00
1FFFC91300
08FFFFA000
004AEFF200
04772FF300
0AFF7FF100
03FFFF8000
009DAA2000
ENDCHAR
STARTCHAR Scedilla
ENCODING 350
SWIDTH 504 0
DWIDTH 9 0
BBX 9 20 0 -6
BITMAP
0000240000
007DFFD500
09FFFFFF60
1EFFFFFFA0
6FFFFFFF90
8FFFFFFF80
8FFF8EFF70
6FFF279A70
2FFFEC5000
05EFFFF700
0016AFFE00
09CB1BFE00
0BFFAFFA00
04FFFFF200
0068FF7000
0000D80000
0002FBA000
00015AF000
000039E000
0002DEE000
ENDCHAR
STARTCHAR scedilla
ENCODING 351
SWIDTH 481 0
DWIDTH 9 0
BBX 9 20 0 -6
BITMAP
0002420000
009FFFC200
09FFFFFD10
2FFFFFFF40
7FFFFFFF20
7FFFFFFF00
7FFF9FFE00
6FFE1BDD00
1FFFC91300
08FFFFA000
004AEFF200
04772FF300
0AFF7FF100
03FFFF8000
009FFC2000
0008C00000
000CDA4000
00046F6000
00025F5000
000BDE4000
ENDCHAR
STARTCHAR Scaron
ENCODING 352
SWIDTH 503 0
DWIDTH 9 0
BBX 9 25 0 -2
BITMAP
0560002700
3FF300CF70
0CFB07FF40
06FF7FFC00
00EFFFF400
008FFFB000
0019893000
0000000000
0000000000
0000240000
007DFFD400
09FFFFFF50
1EFFFFFFA0
6FFFFFFF90
8FFFFFFF80
8FFF8EFF70
6FFF279A70
2FFFEC5000
05EFFFF700
0016AFFE00
09CB1BFE00
0BFFAFF900
04FFFFF200
0068677000
0000010000
ENDCHAR
STARTCHAR scaron
ENCODING 353
SWIDTH 479 0
DWIDTH 9 0
BBX 9 24 0 -1
BITMAP
0520003300
6FC001DE30
2FF609FF20
0AFE5FFA00
04FFFFF200
00CFFF9000
005BAC2000
0000000000
0000000000
0002420000
009FFFC200
09FFFFFD10
3FFFFFFF30
7FFFFFFF10
7FFFFFFF00
7FFF9FFE00
6FFE1BDC00
1FFFC81300
08FFFFA000
004AEFF100
04772FF300
0AFF7FE000
03FFFF8000
009DAA2000
ENDCHAR
STARTCHAR Tcommaaccent
ENCODING 354
SWIDTH 622 0
DWIDTH 11 0
BBX 11 21 0 -7
BITMAP
000233210000
2CFFFFFFDA50
0BFFFFFFFE20
06FFFFFFFB00
03FFFFFFFC00
02FFFFFFFA00
01FFFFFDF800
00429FF41200
00007FF50000
00008FF40000
00008FF40000
00007FF20000
00005FF20000
00005FF30000
00006FF20000
00006FF00000
00000E500000
00003FB90000
000015BE0000
000014AD0000
00003DEC0000
ENDCHAR
STARTCHAR tcommaaccent
ENCODING 355
SWIDTH 683 0
DWIDTH 12 0
BBX 12 21 0 -7
BITMAP
000355554200
4CEFFFFFFFE6
1DFFFFFFFFF2
07FFFFFFFF90
02FFFFFFFF80
00EFFFFFFF70
00CFEFFFCF60
00631FFF1120
00000EFF2000
00000EFF1000
00000DFF1000
00000BFF0000
000009FF1000
000009FE0000
000008FE0000
000004FF0000
000003F40000
000007EA7000
0000025DA000
0000014DA000
000006DE9000
ENDCHAR
STARTCHAR Tcaron
ENCODING 356
SWIDTH 622 0
DWIDTH 11 0
BBX 11 24 0 -2
BITMAP
000000001000
02BB0006D200
02FF602EF800
00AFD1BFF200
003FFCFF8000
000CFFFE1000
0005FFF80000
000032310000
000233210000
2CFFFFFFDA50
0BFFFFFFFE20
06FFFFFFFB00
03FFFFFFFC00
02FFFFFFFA00
01FFFFFDF800
00429FF41200
00007FF50000
00008FF40000
00008FF40000
00007FF20000
00005FF20000
00005FF30000
00006FF20000
000067500000
ENDCHAR
STARTCHAR tcaron
ENCODING 357
SWIDTH 622 0
DWIDTH 11 0
BBX 11 24 0 -2
BITMAP
000100001000
007E2001D600
00BFC00AFE00
004FF55FF700
000CFDEFE100
0006FFFF7000
0000EFFD0000
000022320000
000233210000
2CFFFFFFDA50
0BFFFFFFFE20
06FFFFFFFB00
03FFFFFFFC00
02FFFFFFFA00
01FFFFFDF800
00429FF41200
00007FF50000
00008FF40000
00008FF40000
00007FF20000
00005FF20000
00005FF30000
00006FF20000
000067500000
ENDCHAR
STARTCHAR Utilde
ENCODING 360
SWIDTH 637 0
DWIDTH 11 0
BBX 11 20 0 -1
BITMAP
001200371000
04ED38EFC100
05FFFFFFF700
008FFC7DC100
000340010000
013441110000
4EFFF04FFC70
09FFF06FFF30
07FFE06FFE00
05FFF26FFB00
03FFF27FF800
01FFF28FF400
00EFE08FF200
00DFD0AFF100
00DFF0BFE000
00CFF2CFC000
008FF7EFA000
005FFFFF6000
001CE6B91000
000321410000
ENDCHAR
STARTCHAR utilde
ENCODING 361
SWIDTH 708 0
DWIDTH 13 0
BBX 13 20 0 -1
BITMAP
00030006400000
008F93BFF70000
00AFFFFFFF2000
001CFFA9F80000
00005200100000
00034300000000
3CFFFB05FCB610
08FFFA07FFFE40
05FFFA07FFF800
01FFFD06FFF300
00DFFE06FFD000
00BFFE07FFA000
008FFC08FF7000
007FFB0BFF6000
006FFD0AFF5000
002FFF1DFF2000
000CFF6FFE0000
0009FFFFFA0000
0003AC5CB40000
00000001000000
ENDCHAR
STARTCHAR Umacron
ENCODING 362
SWIDTH 637 0
DWIDTH 11 0
BBX 11 18 0 -1
BITMAP
002664555000
005FFFFFB000
0028CABA8000
013441110000
4EFFF04FFC70
09FFF06FFF30
07FFE06FFE00
05FFF26FFB00
03FFF27FF800
01FFF28FF400
00EFE08FF200
00DFD0AFF100
00DFF0BFE000
00CFF2CFC000
008FF7EFA000
005FFFFF6000
001CE6B91000
000321410000
ENDCHAR
STARTCHAR umacron
ENCODING 363
SWIDTH 708 0
DWIDTH 13 0
BBX 13 18 0 -1
BITMAP
00046555520000
000AFFFFF60000
0005ACAAB40000
00034300000000
3CFFFB05FCB610
08FFFA07FFFE40
05FFFA07FFF800
01FFFD06FFF300
00DFFE06FFD000
00BFFE07FFA000
008FFC08FF7000
007FFB0BFF6000
006FFD0AFF5000
002FFF1DFF2000
000CFF6FFE0000
0009FFFFFA0000
0003AC5CB40000
00000001000000
ENDCHAR
STARTCHAR Ubreve
ENCODING 364
SWIDTH 637 0
DWIDTH 11 0
BBX 11 21 0 -1
BITMAP
001CC1035300
000DF30AF900
000AFEAFF500
0004BFFFD000
0000056A6000
000000002000
013441110000
4EFFF04FFC70
09FFF06FFF30
07FFE06FFE00
05FFF26FFB00
03FFF27FF800
01FFF28FF400
00EFE08FF200
00DFD0AFF100
00DFF0BFE000
00CFF2CFC000
008FF7EFA000
005FFFFF6000
001CE6B91000
000321410000
ENDCHAR
STARTCHAR ubreve
ENCODING 365
SWIDTH 708 0
DWIDTH 13 0
BBX 13 21 0 -1
BITMAP
0004C900452000
0002FE00DF5000
0000EFCBFF1000
00007CFFF90000
0000024A930000
00000001110000
00034300000000
3CFFFB05FCB610
08FFFA07FFFE40
05FFFA07FFF800
01FFFD06FFF300
00DFFE06FFD000
00BFFE07FFA000
008FFC08FF7000
007FFB0BFF6000
006FFD0AFF5000
002FFF1DFF2000
000CFF6FFE0000
0009FFFFFA0000
0003AC5CB40000
00000001000000
ENDCHAR
STARTCHAR Uring
ENCODING 366
SWIDTH 637 0
DWIDTH 11 0
BBX 11 21 0 -1
BITMAP
000003400000
0001DFFB1000
0006F57F5000
0004E00F3000
0001FCDA0000
000039A20000
013441110000
4EFFF04FFC70
09FFF06FFF30
07FFE06FFE00
05FFF26FFB00
03FFF27FF800
01FFF28FF400
00EFE08FF200
00DFD0AFF100
00DFF0BFE000
00CFF2CFC000
008FF7EFA000
005FFFFF6000
001CE6B91000
000321410000
ENDCHAR
STARTCHAR uring
ENCODING 367
SWIDTH 708 0
DWIDTH 13 0
BBX 13 21 0 -1
BITMAP
00000143000000
00002EFF900000
00008E48F30000
00006D02E20000
00003FCD800000
000004A9100000
00034300000000
3CFFFB05FCB610
08FFFA07FFFE40
05FFFA07FFF800
01FFFD06FFF300
00DFFE06FFD000
00BFFE07FFA000
008FFC08FF7000
007FFB0BFF6000
006FFD0AFF5000
002FFF1DFF2000
000CFF6FFE0000
0009FFFFFA0000
0003AC5CB40000
00000001000000
ENDCHAR
STARTCHAR Uhungarumlaut
ENCODING 368
SWIDTH 637 0
DWIDTH 11 0
BBX 11 22 0 -1
BITMAP
000170017000
0007FB06FB60
000DFD2CFE30
004FE33FF400
00BF408F5000
01F500D60000
001000100000
013441110000
4EFFF04FFC70
09FFF06FFF30
07FFE06FFE00
05FFF26FFB00
03FFF27FF800
01FFF28FF400
00EFE08FF200
00DFD0AFF100
00DFF0BFE000
00CFF2CFC000
008FF7EFA000
005FFFFF6000
001CE6B91000
000321410000
ENDCHAR
STARTCHAR uhungarumlaut
ENCODING 369
SWIDTH 708 0
DWIDTH 13 0
BBX 13 22 0 -1
BITMAP
00005300530000
0000CF60CEA300
0003FF93FFB000
000AFB08FC1000
002FC10ED10000
006D103E200000
00010001000000
00034300000000
3CFFFB05FCB610
08FFFA07FFFE40
05FFFA07FFF800
01FFFD06FFF300
00DFFE06FFD000
00BFFE07FFA000
008FFC08FF7000
007FFB0BFF6000
006FFD0AFF5000
002FFF1DFF2000
000CFF6FFE0000
0009FFFFFA0000
0003AC5CB40000
00000001000000
ENDCHAR
STARTCHAR Uogonek
ENCODING 370
SWIDTH 637 0
DWIDTH 11 0
BBX 11 20 0 -6
BITMAP
013441110000
4EFFF04FFC70
09FFF06FFF30
07FFE06FFE00
05FFF26FFB00
03FFF27FF800
01FFF28FF400
00EFE08FF200
00DFD0AFF100
00DFF0BFE000
00CFF2CFC000
008FF7EFA000
005FFFFF6000
001CEDFD1000
00032CF30000
00000CF10000
00000BFA3200
000006FFFD00
0000008EFB00
000000001000
ENDCHAR
STARTCHAR uogonek
ENCODING 371
SWIDTH 662 0
DWIDTH 12 0
BBX 13 20 0 -6
BITMAP
00034300000000
3DFFFA06FCB610
08FFF908FFFE40
06FFF908FFF800
02FFFC07FFF300
00EFFD07FFC000
00BFFD08FF9000
009FFB09FF6000
007FFA0BFF5000
007FFC0BFF4000
003FFF0DFF1000
000DFF5FFD0000
0009FFFFFA0000
0003BFFDB30000
00000FC1000000
00002FC0000000
00001FF6220000
00000BFFF80000
000001AFF70000
00000000100000
ENDCHAR
STARTCHAR Wcircumflex
ENCODING 372
SWIDTH 777 0
DWIDTH 14 0
BBX 14 22 0 -1
BITMAP
00000AAB700000
00005FFFF10000
0000BFFFF90000
0003FF5BFF2000
000AF701CF9000
000E90002DA000
00010000010000
00001069023100
26AED0CF15FFC6
4DFFE1FF4AFFB1
01EFF5FF7DFE20
006FF9FFDFF600
004FFEFFFFE000
001DFFFFFF9000
0006FFFFFF7000
0001FFFFFF6000
0000DFEEFF2000
00009FCCFE0000
00006FAAFA0000
00002F89F40000
00000878E20000
00000010000000
ENDCHAR
STARTCHAR wcircumflex
ENCODING 373
SWIDTH 704 0
DWIDTH 13 0
BBX 13 21 0 0
BITMAP
00005BAC100000
0000CFFF900000
0004FFFFF20000
000BFC4FF90000
002FD106FF2000
007E20007E3000
00020000020000
00000141100000
4ADF64F44EC930
1AFF87F85FFA10
01EFA9FC7FF400
008FEBFFCFC000
006FFEFFFF6000
002FFFFFFF1000
0009FFFFFE0000
0005FFFFFC0000
0002FFEFFB0000
0000DFAEFB0000
00008F9DF80000
00004F7AF50000
00000939D40000
ENDCHAR
STARTCHAR Ycircumflex
ENCODING 374
SWIDTH 688 0
DWIDTH 12 0
BBX 13 22 0 -1
BITMAP
00006AAB000000
0000EFFF600000
0006FFFFE10000
000DFA5FF70000
004FC108FE1000
009D1000AE2000
00010000010000
00234001300000
4DFFF606FDA510
019FFE19FFF920
000AFF9FFF7000
0001CFFFF90000
00006FFFF20000
00000EFFF00000
000009FFD00000
000004FFC00000
000000FFB00000
000000DFA00000
000000BF900000
000000AF800000
0000008F700000
00000056200000
ENDCHAR
STARTCHAR ycircumflex
ENCODING 375
SWIDTH 604 0
DWIDTH 11 0
BBX 11 23 0 -2
BITMAP
0005AAC10000
000DFFF80000
005FFFFE1000
00BFB4FF8000
03FD106FE100
08E20008E300
002000002000
002310110000
2DFFA07EB820
02CFF2BFF800
001FF9FFA000
0008FFFE1000
0003FFF90000
0000EFF80000
0000BFF60000
00008FF50000
00005FF40000
00003FF20000
00004FF30000
00004FF10000
00004FD00000
00002C800000
000001000000
ENDCHAR
STARTCHAR Ydieresis
ENCODING 376
SWIDTH 688 0
DWIDTH 12 0
BBX 13 20 0 -1
BITMAP
00787407AC8000
00EFF80DFFB000
00EFF80DFFB000
00EFF80DFFC000
00789406765000
00234001300000
4DFFF606FDA510
019FFE19FFF920
000AFF9FFF7000
0001CFFFF90000
00006FFFF20000
00000EFFF00000
000009FFD00000
000004FFC00000
000000FFB00000
000000DFA00000
000000BF900000
000000AF800000
0000008F700000
00000056200000
ENDCHAR
STARTCHAR Zacute
ENCODING 377
SWIDTH 695 0
DWIDTH 13 0
BBX 13 21 0 -1
BITMAP
00000000001000
0000000001C600
000000003DFB00
00000005EFFF70
0000001FD95100
00000002000000
00144444200000
3CFFFFFFFDA620
1EFFFFFFFFFB00
08FFFFFFFFF300
01FFFFFFFFB000
00CFFFFFFF4000
00BFBBFFFA0000
00630BFF910000
00003FFB000000
00008FE2000000
0000CF70000000
0004FF86200000
000CFFFF700000
000DDFFF200000
00021245000000
ENDCHAR
STARTCHAR zacute
ENCODING 378
SWIDTH 622 0
DWIDTH 11 0
BBX 12 21 0 -1
BITMAP
000000000100
000000002C60
00000003DFB0
0000005EFFF7
000001FD9510
000000200000
002545541000
3DFFFFFFFD50
0EFFFFFFFF30
06FFFFFFFB00
00EFFFFFF600
00BFFFFFF400
009FCCFFB000
00540DFC1000
00005FF40000
00008FB00000
0000CF500000
0002FE540000
0008FFFF3000
000AFFFF1000
0004345A0000
ENDCHAR
STARTCHAR Zdotaccent
ENCODING 379
SWIDTH 695 0
DWIDTH 13 0
BBX 13 21 0 -1
BITMAP
00015699600000
0000DFFFD00000
0000BFFFC00000
00009FFFE00000
00008FFFD00000
00007CA9800000
00144444200000
3CFFFFFFFDA620
1EFFFFFFFFFB00
08FFFFFFFFF300
01FFFFFFFFB000
00CFFFFFFF4000
00BFBBFFFA0000
00630BFF910000
00003FFB000000
00008FE2000000
0000CF70000000
0004FF86200000
000CFFFF700000
000DDFFF200000
00021245000000
ENDCHAR
STARTCHAR zdotaccent
ENCODING 380
SWIDTH 622 0
DWIDTH 11 0
BBX 11 21 0 -1
BITMAP
001569960000
000DFFFC0000
000BFFFC0000
0009FFFD0000
0008FFFC0000
0007CA980000
002545541000
3DFFFFFFFD50
0EFFFFFFFF30
06FFFFFFFB00
00EFFFFFF600
00BFFFFFF400
009FCCFFB000
00540DFC1000
00005FF40000
00008FB00000
0000CF500000
0002FE540000
0008FFFF3000
000AFFFF1000
0004345A0000
ENDCHAR
STARTCHAR Zcaron
ENCODING 381
SWIDTH 693 0
DWIDTH 12 0
BBX 13 24 0 -1
BITMAP
00064000450000
003FE201EF3000
000CF909FE1000
0006FF6FF80000
0001EFFFE10000
00009FFF900000
0000398A200000
00000000000000
00000000000000
00144444200000
3CFFFFFFFDA610
1EFFFFFFFFFB00
08FFFFFFFFF300
02FFFFFFFFB000
00CFFFFFFF4000
00BFBBFFFA0000
00630BFF910000
00003FFB000000
00008FE2000000
0000CF70000000
0004FF86200000
000CFFFF700000
000EDFFF200000
00020245000000
ENDCHAR
STARTCHAR zcaron
ENCODING 382
SWIDTH 621 0
DWIDTH 11 0
BBX 11 24 0 -1
BITMAP
006700038000
02FF301DF700
00BFB08FF300
005FF8FFA000
000DFFFF3000
0007FFFA0000
000187820000
000000000000
000000000000
002545541000
3DFFFFFFFD50
0EFFFFFFFF30
06FFFFFFFA00
00EFFFFFF600
00BFFFFFF400
009FCCFFB000
00540DFC1000
00005FF40000
00008FB00000
0000CF500000
0002FE540000
0008FFFF3000
000AFFFF1000
0004345A0000
ENDCHAR
STARTCHAR DZ
ENCODING 497
SWIDTH 194 0
DWIDTH 4 0
BBX 1 1 0 0
BITMAP
00
ENDCHAR
STARTCHAR Dz
ENCODING 498
SWIDTH 194 0
DWIDTH 4 0
BBX 1 1 0 0
BITMAP
00
ENDCHAR
STARTCHAR dotlessj
ENCODING 567
SWIDTH 458 0
DWIDTH 8 0
BBX 9 15 -1 -1
BITMAP
0002441000
0008FFFD50
0002FFFF30
0000EFFE00
0000AFFA00
0000AFFA00
0000AFFA00
0000AFF800
00007FF700
03527FF500
4FF47FF400
1EF98FF200
0CFFFFE000
03DFFF9000
0001454000
ENDCHAR
STARTCHAR circumflex
ENCODING 710
SWIDTH 528 0
DWIDTH 10 0
BBX 9 7 0 12
BITMAP
001BAB6000
007FFFD000
00DFFFF700
05FF4CFE10
0CF502EF70
2F70003E80
0200000200
ENDCHAR
STARTCHAR caron
ENCODING 711
SWIDTH 486 0
DWIDTH 9 0
BBX 9 8 0 12
BITMAP
0100000000
4D6000AA00
6FF206FF40
0EFA1EFC00
08FFCFF400
01FFFFB000
009FFF4000
0013240000
ENDCHAR
STARTCHAR breve
ENCODING 728
SWIDTH 464 0
DWIDTH 8 0
BBX 8 6 0 -2
BITMAP
3CB00352
0EF10BF7
0BFDAFF3
05BFFFB0
00058960
00000020
ENDCHAR
STARTCHAR dotaccent
ENCODING 729
SWIDTH 388 0
DWIDTH 7 0
BBX 6 6 0 4
BITMAP
156996
0DFFFC
0BFFFC
09FFFD
08FFFC
07CA98
ENDCHAR
STARTCHAR ring
ENCODING 730
SWIDTH 370 0
DWIDTH 7 0
BBX 6 6 0 5
BITMAP
002410
09FFE3
1F85DA
0D5099
0AEBE1
026B40
ENDCHAR
STARTCHAR ogonek
ENCODING 731
SWIDTH 360 0
DWIDTH 7 0
BBX 5 8 1 -1
BITMAP
120000
BF1000
DD0000
FD0000
EF7320
9FFFA0
1AFF80
000100
ENDCHAR
STARTCHAR tilde
ENCODING 732
SWIDTH 535 0
DWIDTH 10 0
BBX 9 5 0 -2
BITMAP
0030017200
1CF55DFE30
1DFFFFFFC0
03EFE8BE40
0015100100
ENDCHAR
STARTCHAR hungarumlaut
ENCODING 733
SWIDTH 554 0
DWIDTH 10 0
BBX 10 7 0 12
BITMAP
0026003500
009F908EB5
01EFC1EFD2
06FD15FE20
0DE20AE300
2E400E4000
0100010000
ENDCHAR
STARTCHAR dotaccentcmb
ENCODING 775
SWIDTH 396 0
DWIDTH 7 0
BBX 5 7 1 6
BITMAP
125530
DFFFD0
AFFFC0
9FFFF0
8FFFE0
7FEDC0
110000
ENDCHAR
STARTCHAR uni030F
ENCODING 783
SWIDTH 549 0
DWIDTH 10 0
BBX 10 7 0 12
BITMAP
0062007100
5BF70AF700
2EFD1DFD00
03EF32EF50
004F904FC0
0005D004E2
0000100010
ENDCHAR
STARTCHAR uni0311
ENCODING 785
SWIDTH 490 0
DWIDTH 9 0
BBX 7 6 1 6
BITMAP
00121000
1BFFF700
6FFFFF20
AFA3CF80
EF306FC0
44100110
ENDCHAR
STARTCHAR uni0326
ENCODING 806
SWIDTH 360 0
DWIDTH 7 0
BBX 5 9 1 -2
BITMAP
120000
BFFF60
BFFF70
CFFF80
DFFF70
339F70
008F40
00BF20
007900
ENDCHAR
STARTCHAR endash
ENCODING 8211
SWIDTH 478 0
DWIDTH 9 0
BBX 7 4 1 5
BITMAP
9A998950
EFFFFF50
FFFFFF30
7BCAAB20
ENDCHAR
STARTCHAR emdash
ENCODING 8212
SWIDTH 567 0
DWIDTH 10 0
BBX 9 4 1 5
BITMAP
9A989A9920
EFFFFFFE00
FFFFFFFB00
7BC7BBA900
ENDCHAR
STARTCHAR quoteleft
ENCODING 8216
SWIDTH 373 0
DWIDTH 7 0
BBX 5 10 1 4
BITMAP
131000
8F5000
AF3000
CF0000
EFCA80
EFFFB0
EFFFB0
EFFFA0
DFFFA0
556840
ENDCHAR
STARTCHAR quoteright
ENCODING 8217
SWIDTH 369 0
DWIDTH 7 0
BBX 6 10 0 4
BITMAP
022010
1FFFF7
1FFFF8
2FFFF8
2FFFF8
2FFFF8
0218F7
0008F4
000BF2
000680
ENDCHAR
STARTCHAR quotesinglbase
ENCODING 8218
SWIDTH 369 0
DWIDTH 7 0
BBX 6 10 0 4
BITMAP
022010
1FFFF7
1FFFF8
2FFFF8
2FFFF8
2FFFF8
0218F7
0008F4
000BF2
000680
ENDCHAR
STARTCHAR quotedblleft
ENCODING 8220
SWIDTH 687 0
DWIDTH 12 0
BBX 11 10 1 4
BITMAP
131000230000
8F5000DE0000
AF3000FD0000
CF0002FA0000
EFCA84FEBB40
EFFFB4FFFF60
EFFFB4FFFF60
EFFFA4FFFF50
DFFFA3FFFF50
556841657820
ENDCHAR
STARTCHAR quotedblright
ENCODING 8221
SWIDTH 677 0
DWIDTH 12 0
BBX 12 10 0 4
BITMAP
033220032010
1FFFF34FFFF0
1FFFF44FFFF1
2FFFF45FFFF1
3FFFF45FFFF1
3FFFF46FFFF0
0228F3012DF0
0009F1000FD0
000BE0002FA0
000760001840
ENDCHAR
STARTCHAR quotedblbase
ENCODING 8222
SWIDTH 697 0
DWIDTH 13 0
BBX 12 10 0 -6
BITMAP
044221034221
0FFFF70EFFF8
1FFFF80FFFF9
1FFFF80FFFFA
2FFFF81FFFF9
2FEFF81FEFF9
0006F70005F8
0008F40007F6
000AF20009F3
000560000461
ENDCHAR
STARTCHAR ellipsis
ENCODING 8230
SWIDTH 1462 0
DWIDTH 26 0
BBX 26 7 0 0
BITMAP
01244100000125410000012541
1EFFF700001EFFF500002FFFF5
0CFFF600000CFFF400000FFFF4
0BFFF800000BFFF600000DFFF7
0AFFF700000AFFF500000CFFF6
09FEE6000009FEE400000CFDE4
02200000000210000000021000
ENDCHAR
STARTCHAR guilsinglleft
ENCODING 8249
SWIDTH 459 0
DWIDTH 8 0
BBX 8 10 0 1
BITMAP
003FFFE7
006FFFA0
01EFFD10
1CFFF400
6FFF9000
1EFFE100
07FFF500
009FFE30
000BFFE4
000078B6
ENDCHAR
STARTCHAR guilsinglright
ENCODING 8250
SWIDTH 432 0
DWIDTH 8 0
BBX 8 11 0 1
BITMAP
01111000
4FFFE100
09FFF300
00CFFD10
003EFFA0
0007FFF2
000DFFD0
005FFE50
04EFF700
3FFFC100
28872000
ENDCHAR
STARTCHAR fraction
ENCODING 8260
SWIDTH 371 0
DWIDTH 7 0
BBX 7 15 0 -1
BITMAP
02534100
9FFFFF50
1CFFFD00
03FFF900
02FFF700
03FFF400
03FFF100
02FFF000
00FFF000
00DFE100
00AFC000
009FB000
008FA000
007DA000
00115000
ENDCHAR
STARTCHAR Euro
ENCODING 8364
SWIDTH 587 0
DWIDTH 11 0
BBX 10 18 0 -4
BITMAP
0000245200
0008FFFF70
009FFFFFF6
00EFFFFFFB
02FFFFFFFC
01FFFFFFFB
00EFFCCFFA
11CFF75FFA
9EFFFB2774
13AFF40000
7CEFFE4840
004FF58FE0
000EFCEFB0
000BFFFE30
000086A500
0000635000
0000551000
0000032000
ENDCHAR
STARTCHAR trademark
ENCODING 8482
SWIDTH 785 0
DWIDTH 14 0
BBX 14 10 0 4
BITMAP
24554215755852
8FFFFE1DFB9FF3
3FFFFB09FFDFE0
1FFFFA07FFFFC0
17AF8406FFFFC0
006F5004FDDFB0
006F4001FBBEA0
005F3000E99E80
004F4000824550
00361000000000
ENDCHAR
STARTCHAR minus
ENCODING 8722
SWIDTH 478 0
DWIDTH 9 0
BBX 7 4 1 5
BITMAP
9A998950
EFFFFF50
FFFFFF20
7BCAAB20
ENDCHAR
STARTCHAR commaaccent
ENCODING 63171
SWIDTH 360 0
DWIDTH 7 0
BBX 6 10 0 -3
BITMAP
012000
0FFFF7
1FFFF8
2FFFF9
2FFFF8
2FFFF8
0228F7
0008F5
000AF3
000790
ENDCHAR
STARTCHAR .notdef
ENCODING -1
SWIDTH 365 0
DWIDTH 7 0
BBX 6 12 0 0
BITMAP
6A99A6
630036
630036
630036
630036
630036
630036
630036
630036
630036
630036
6A99A6
ENDCHAR
STARTCHAR .null
ENCODING -1
SWIDTH 0 0
DWIDTH 0 0
BBX 1 1 0 0
BITMAP
00
ENDCHAR
STARTCHAR nonmarkingreturn
ENCODING -1
SWIDTH 333 0
DWIDTH 6 0
BBX 1 1 0 0
BITMAP
00
ENDCHAR
ENDFONT
